<?xml version="1.0" encoding="utf-8"?>
<!-- Generator: Adobe Illustrator 25.2.0, SVG Export Plug-In . SVG Version: 6.00 Build 0)  -->
<svg version="1.1" id="Layer_1" xmlns="http://www.w3.org/2000/svg" xmlns:xlink="http://www.w3.org/1999/xlink" x="0px" y="0px" viewBox="0 0 3000 3000" style="enable-background:new 0 0 3000 3000;" xml:space="preserve">
<path data-typeface="AbrilTitling" d="M40.1,0v3.9l-7.3,0.6v43.6c0,14.1-6.1,23-18.4,23C4.7,71.1,0,66.2,0,59.4c0-5.6,3.4-8.1,6.8-8.1c3.3,0,5.8,1.7,5.8,5.7 c0,1.1-0.2,2.5-0.7,4.1H8.6c-0.1,0.4-0.2,0.9-0.2,1.3c0,2.3,2,3.8,6.2,3.8c6.2,0,7.8-3.8,7.8-11.3V4.6l-9.1-0.7V0H40.1z"/>
<path data-typeface="AbrilTitling" d="M0,90.2c8.6-2,10.1-8.4,10.1-18V27.9l-7.3-0.7v-4h16.8v47.1c0,10.9-2.1,22.3-19.2,23.6L0,90.2z M13.3,0 c3.5,0,6.2,1.6,6.2,6.1c0,3.9-2.2,6.1-6.1,6.1c-4.7,0-6.3-2.7-6.3-6C7.1,2.7,9,0,13.3,0z"/>
<path data-typeface="AcuminPro-Black" d="M33.4,45.3C33.4,62,27.7,70,10.1,70C6.4,70,2.3,69.7,0,69.1V54.5c1.4,0.1,4.1,0.3,6.1,0.3c6,0,7.2-3.6,7.2-8.4V0h20.1V45.3z "/>
<path data-typeface="AcuminPro-Black" d="M25.8,20v48.7c0,15.7-2.9,23.9-20.3,23.9c-1.6,0-3.9-0.1-5.5-0.2v-14h1.2c3.9,0,5.2-1.3,5.2-5.9V20H25.8z M6.4,13.5V0h19.5 v13.5H6.4z"/>
<path data-typeface="AgencyFB-Reg" d="M28.6,71c0,1.6-0.5,2.9-1.5,3.9s-2.3,1.5-3.9,1.5H5.4c-1.6,0-2.9-0.5-3.9-1.5S0,72.6,0,71V51.6h6.8v18.8h15V0h6.8V71z"/>
<path data-typeface="AgencyFB-Reg" d="M13.6,78.6c0,3.7-1.8,5.5-5.5,5.5H0v-5.7h7.2V18.6h6.4V78.6z M13.7,8.2H7.1V0h6.6V8.2z"/>
<path data-typeface="Agenda-Light" d="M4.4,76.2L0,71.7c10.2-2.1,15.9-8.9,15.9-21.5V0h6.7v50.9C22.6,66.2,13.8,74.3,4.4,76.2z"/>
<path data-typeface="Agenda-Light" d="M4.1,86.1l-4.1-4c6.3-1.5,9.9-6.1,9.9-14.3v-50h6.4v50.5C16.3,77.8,10.7,84.5,4.1,86.1z M13.1,8.8c-1.4,0-4.4-3-4.4-4.4 c0-1.5,3-4.4,4.4-4.4c1.5,0,4.4,2.9,4.4,4.4C17.5,5.8,14.6,8.8,13.1,8.8z"/>
<path data-typeface="AgletSlab-Semibold" d="M0,50.6v-4.9C0,42,2.2,40,5.5,40h0.8c3.3,0,5.5,2,5.5,5.6v5c0,7.6,3.1,11.2,10,11.2S32,57.9,32,50.2V9h-6.5 c-1.6,0-2.8-0.9-2.8-2.5V2.6C22.7,1,23.9,0,25.5,0h24.7C51.8,0,53,1,53,2.6v3.9C53,8.1,51.8,9,50.2,9h-5.7v40.9 c0,13.8-8.5,21.2-22.6,21.2C7.7,71.1,0,64.4,0,50.6z"/>
<path data-typeface="AgletSlab-Semibold" d="M9.1,90.3H4.3c-2.9,0-4.3-1.2-4.3-3.6v-2.4c0-2,1.4-3.2,3.6-3.2h4.5c2.6,0,3.8-1.3,3.8-4V28.8H6.5c-1.5,0-2.6-1-2.6-2.5 v-3.8C3.9,21,5,20,6.5,20h13.1c2.8,0,4.3,1.2,4.3,4.2v53.1C23.9,86.2,19.8,90.3,9.1,90.3z M14.8,13.8c-3.2,0-5-1.8-5-5V5 c0-3.2,1.8-5,5-5h4.1c3.2,0,5,1.8,5,5v3.8c0,3.2-1.8,5-5,5H14.8z"/>
<path data-typeface="AkagiPro-Fat" d="M0,74.3c13.6,0.4,14.2-10.4,14.2-23.5V0H36v50.6c0,28.6-14,40.3-34.1,40.2L0,74.3z"/>
<path data-typeface="AkagiPro-Fat" d="M0,84.1c9.4-0.2,10.8-4.2,10.8-16.3V28.1l21.6-0.5v43.2c0,22-8.3,30.7-30.2,30.2L0,84.1z M10.4,11.2C10.4,5,15.3,0,21.5,0 c6.2,0,11.2,5,11.2,11.2s-5,11.1-11.2,11.1S10.4,17.4,10.4,11.2z"/>
<path data-typeface="AktivGroteskEx-Thin" d="M51.3,0h4.4v47.9c0,8.4-2.3,14.7-6.9,19c-4.6,4.2-11.4,6.3-20.5,6.3c-8.1,0-14.5-1.9-19.4-5.7C4.1,63.7,1.1,58.3,0,51.2h4.4 c1,5.9,3.5,10.4,7.6,13.5c4.1,3.1,9.5,4.7,16.2,4.7c15.3,0,23-7.3,23-21.8V0H51.3z"/>
<path data-typeface="AktivGroteskEx-Thin" d="M19.6,20.1h4.2v56.4c0,10.3-4.6,15.4-13.8,15.4c-3.6,0-6.9-0.6-10-1.8l0.9-3.4c3,1.1,5.9,1.6,8.8,1.6c6.6,0,9.9-3.7,9.9-11 L19.6,20.1L19.6,20.1z M19.5,9.5V0h4.4v9.5H19.5z"/>
<path data-typeface="Alegreya-Bold" d="M0,76.3l0.3-1.1c2.6-1.9,4.6-3.7,5.9-5.6C7.5,67.7,8.5,65.5,9,63c0.5-2.6,0.8-6,0.8-10.3l0.1-40.3c0-2.1-0.2-3.5-0.7-4.2 s-1.4-1-2.8-1c-0.8,0-1.6,0-2.4,0.1C3.2,7.4,2.6,7.5,2.2,7.5L1.7,6.7l0.7-5.9h12.3c2.8,0,5.8-0.1,8.8-0.3c3.1-0.2,5.1-0.4,6.1-0.5 l-0.5,6.7c-2.2,0.3-3.6,0.8-4.2,1.5c-0.6,0.7-1,2-1.1,3.9c-0.3,4.5-0.5,11.5-0.8,20.8s-0.4,16.6-0.5,22c0,6.6-1.6,11.9-4.7,16 c-3.1,4.1-8.1,7.2-15,9.5L0,76.3z"/>
<path data-typeface="Alegreya-Bold" d="M0,94.1L0.2,93c2.9-2.8,4.8-5.9,5.9-9.2c1-3.3,1.5-8.2,1.5-14.7V39.7c0-2.1-0.3-3.6-0.8-4.4s-1.5-1.2-2.9-1.2 c-0.7,0-1.3,0-1.8,0.1S1.2,34.3,1,34.4l0.6-5.7c3.3-0.5,7-1.1,11-1.8c4-0.7,6.6-1.2,7.8-1.5l0.8,1.6c-1.4,2.9-2.1,18.6-2.1,47.1 c0,4.7-1.4,9-4.3,13.1C12,91.3,8,94.6,3,97.1L0,94.1z M8.1,13.3c-1.2-1.3-1.9-3-1.9-5.2c0-2.3,0.7-4.3,2.2-5.8S11.8,0,14.1,0 c2.1,0,3.7,0.6,5,1.9c1.2,1.3,1.9,3,1.9,5.2c0,2.3-0.7,4.3-2.2,5.8c-1.4,1.5-3.3,2.3-5.6,2.3C11.1,15.2,9.4,14.5,8.1,13.3z"/>
<path data-typeface="Alga-Medium" d="M0,57c0-3.9,2.3-7.8,6.7-7.8c2.7,0,4.5,1.5,5.1,3.8c-2.5,1.6-3.6,3.8-3.6,6.7c0,3.9,2.1,6.4,5.8,6.4 c8.1,0,8.1-10.8,8.1-19.1V3.5l-8.4-1.7V0h26.6v1.8l-8.4,1.7v42.8c0,11.2-4.6,22-17.7,22C5.4,68.3,0,63.1,0,57z"/>
<path data-typeface="Alga-Medium" d="M0,79.9c0-3.9,2.4-6.4,5.8-6.4c3.4,0,4.9,2.7,5.2,4.4c-2.3,1.1-4.4,2.5-4.4,5.3c0,2,1.3,3.5,4,3.5c7.2,0,7.3-10.4,7.3-21.3 V23.7l-5.8,0.6v-1.5l14.8-3.2l0.6,0.1v44c0,14.2-4.9,24.9-16.3,24.9C4.1,88.6,0,84.7,0,79.9z M15.6,5.8c0-3.2,2.6-5.8,5.8-5.8 c3.3,0,5.9,2.6,5.9,5.8c0,3.3-2.6,6-5.9,6C18.2,11.7,15.6,9.1,15.6,5.8z"/>
<path data-typeface="AlternateGotNo2D" d="M17.6,0v45.7c0,9.5-0.6,13.3-2.8,16.6c-1.9,2.9-5.4,4.4-10,4.4H0v-9.3h2.4c3.9,0,5.2-2.4,5.2-10.1V0H17.6z"/>
<path data-typeface="AlternateGotNo2D" d="M15.3,17v51c0,7-0.3,9-1.8,11.5c-1.5,2.6-4.9,4.2-8.8,4.2c-1.6,0-2.9-0.2-4.7-0.6v-8.7c1,0.2,1.4,0.3,2.1,0.3 c3,0,4.2-1.7,4.2-5.6V17H15.3z M15.3,9h-9V0h9V9z"/>
<path data-typeface="AnisetteStdPetite-ExBold" d="M39.2,40.9c0,23.6-20.8,27.6-39.2,27.7L1,52c10.1-0.2,16-2.9,16-13.4V16.8H0.5V0h38.7V40.9z"/>
<path data-typeface="AnisetteStdPetite-ExBold" d="M0,87l0.9-14.1c9.3-0.1,13.7-4.1,13.7-14.9V22.2h20.1v36.1C34.7,79.1,21.2,86.8,0,87z M24.7,17.1c-6,0-11.4-2.8-11.4-8.6 c0-5.9,5.5-8.5,11.4-8.5S36,2.6,36,8.5C36,14.3,30.6,17.1,24.7,17.1z"/>
<path data-typeface="AnonymousPro" d="M43.4,39.4c0,8.1-1.7,14.3-5.2,18.8c-3.5,4.4-8.7,6.7-15.8,6.7c-5.7,0-10.4-1.5-14.3-4.5C4.3,57.4,1.6,53,0,47l5.8-2.2 c1.4,5.3,3.5,9,6.3,11.1s6.2,3.2,10.3,3.2c3,0,5.4-0.6,7.3-1.8c1.9-1.2,3.3-2.7,4.3-4.6s1.7-4,2-6.3c0.4-2.3,0.5-4.7,0.5-7V0h6.8 L43.4,39.4L43.4,39.4z"/>
<path data-typeface="AnonymousPro" d="M16.8,83c-8,0-13.6-3.3-16.8-9.9l5.1-3.5c1.2,2.5,2.7,4.4,4.6,5.7s4.3,2,7.1,2c2.2,0,4.1-0.3,5.6-1c1.5-0.6,2.7-1.5,3.5-2.7 c0.9-1.2,1.5-2.6,1.9-4.2c0.4-1.7,0.6-3.6,0.6-5.7V23.9H18.1v-5.7h17v45.5c0,5.9-1.5,10.5-4.6,14C27.3,81.2,22.8,83,16.8,83z  M36.2,9.1h-9.1V0h9.1V9.1z"/>
<path data-typeface="ArcherPro-Thin" d="M0,51c0-2.2,0.8-3.3,2.1-3.3c1,0,1.7,0.7,1.7,1.8c0,1.1-0.8,2.2-2.4,2.2c0.1,8,6.8,14,14.7,14c4.6,0,8-1.6,10.5-4.2 c3.6-3.6,5.4-9.5,5.4-17V1.3H20.6V0h22.1v1.3h-9.2v43.2c0,7.8-1.9,14-5.8,17.9c-2.8,2.8-6.6,4.6-11.6,4.6C7.5,67,0,60.4,0,51z"/>
<path data-typeface="ArcherPro-Thin" d="M1.6,74.1c1,0,1.5,0.7,1.5,1.6c0,0.6-0.3,1.3-1.1,1.7c0.6,1.3,2.4,2.4,4.8,2.4c3.5,0,7-2.2,8.3-7.8c0.6-2.6,0.8-5.8,0.8-9.7 V21.4H6.3v-1.2h11v42c0,4.2-0.2,7.5-0.9,10.2c-1.6,6.3-5.5,8.6-9.6,8.6C2.6,81,0,78.5,0,76C0,75.1,0.5,74.1,1.6,74.1z M13.9,1.9 c0-1.1,0.8-1.9,1.8-1.9c1.1,0,1.9,0.8,1.9,1.9s-0.8,1.9-1.9,1.9C14.7,3.8,13.9,3,13.9,1.9z"/>
<path data-typeface="AntiqueOliCon-Bol" d="M27.7,50.4c0,10.7-6.1,17.6-15.8,17.6C7.5,68,4.1,66.7,0,63.6V52.1c0-0.8,0.1-0.9,0.3-0.9c0.2,0,0.4,0.1,1,0.8 c1.3,1.4,3.6,2.3,5.7,2.3c2.4,0,4.3-1.4,5.1-3.7c0.6-1.7,0.6-1.7,0.6-6.9V0h15L27.7,50.4L27.7,50.4z"/>
<path data-typeface="AntiqueOliCon-Bol" d="M18.7,69.6c0,9.6-4.5,14.7-12.9,14.7c-2.4,0-4-0.3-5.8-0.9V72.5l1,0.1c1.9,0,2.7-1.6,2.7-5.3V13.7c1.9,0.9,3.4,1.1,6.9,1.1 c4.7,0,6.5-0.2,8.1-1.1L18.7,69.6L18.7,69.6z M19.6,5.5c0,3.8-2.8,5.7-8.5,5.7c-5.1,0-7.8-2-7.8-5.8C3.3,2,6.3,0,11.6,0 C16.7,0,19.6,2,19.6,5.5z"/>
<path data-typeface="Arbotek-Light" d="M62.1,0h4.2v33.1c0,18.3-14.9,33.2-33.2,33.2C14.8,66.3,0,51.4,0,33.1h4c0,16.1,13,29.2,29.1,29.2c16,0,29-13.1,29-29.2V0z" />
<path data-typeface="Arbotek-Light" d="M8.6,18h4.2v49.7C12.8,77,8.1,83.5,0,83.5v-4c5.6,0,8.6-4.7,8.6-11.8L8.6,18L8.6,18z M10.7,0c2.4,0,4.4,2,4.4,4.4 s-2,4.4-4.4,4.4s-4.4-2-4.4-4.4S8.3,0,10.7,0z"/>
<path data-typeface="Armada-BoldCondensed" d="M7.4,72H0V59.1h6.7c2.3,0,4.1-0.4,5.5-1.1V0h16.2v66.7C22.8,70.2,15.5,72,7.4,72z"/>
<path data-typeface="Armada-BoldCondensed" d="M4.3,87.6H0V77.1h2.2c1.5,0,3.1-0.2,4.1-0.8V21.7h14v61.6C15.9,86.2,10.6,87.6,4.3,87.6z M6.2,14.3V0h14.3v14.3H6.2z"/>
<path data-typeface="Asphalt-BlackCondensed" d="M33.5,54.6c-0.3,13.1-6,18.9-17.6,18.9c-6.7,0-11.1-0.8-15.9-2.7l0.8-21.5C2,49.8,3.6,50,4.7,50c3.5,0,4.8-1.2,4.8-8.1 L9.2,1l25.6-1L33.5,54.6z"/>
<path data-typeface="Asphalt-BlackCondensed" d="M19.1,86.8L0,84.5C1.7,76.4,2.4,66.4,2.3,52L1.9,20.7L24,19.9l0.4,28.8C24.7,70,22.5,79.4,19.1,86.8z M24.5,17.1L2,17.8 L1.9,0l22.8,2.7L24.5,17.1z"/>
<path data-typeface="AzoSans-Medium" d="M17.9,0h12.7v50.3c0,9.1-1.6,13.8-4.4,17.1c-3.7,4.3-9.5,6.1-15.6,6.1c-4.4,0-8-0.9-10.6-2V60.1c3.3,1.3,7,2.1,9.8,2.1 c7.1,0,8.1-4.2,8.1-11.4V0z"/>
<path data-typeface="AzoSans-Medium" d="M11.8,23.8h12.1v52.5c0,8.2-1.5,12.2-3.9,14.8c-3.4,3.7-8.7,5-13.5,5c-2.6,0-4.9-0.3-6.5-0.8V85c1.8,0.4,3.8,0.6,5.4,0.6 c5.5,0,6.4-3.3,6.4-8.6V23.8z M17.9,0c4.1,0,7.5,3.4,7.5,7.5S22,15,17.8,15c-4.1,0-7.5-3.4-7.5-7.5S13.7,0,17.9,0z"/>
<path data-typeface="BaskOldFace" d="M43.4,0v1.1c-1.7,0.1-3.1,0.3-4.2,0.6c-1,0.3-2,0.9-2.9,1.6c-1.2,1-2.1,2.4-2.6,4.1S33,11.6,33,15.1v43.6 c0,4.4-0.3,7.8-1,10.2c-0.7,2.4-1.8,4.4-3.6,6.1c-1.7,1.7-4.1,3-7,4s-5.9,1.5-9,1.5c-1.8,0-3.6-0.2-5.3-0.6C5.4,79.5,4,79,2.9,78.3 C1,77.1,0,75.6,0,73.6c0-1.2,0.4-2.1,1.1-2.9C1.8,70,2.8,69.6,4,69.6s2.2,0.4,3,1.2c0.4,0.4,0.7,0.9,1,1.4c0.3,0.6,0.7,1.6,1.3,3.1 c0.6,1.4,1.2,2.4,2,3c0.7,0.6,1.7,0.9,2.9,0.9c1.6,0,2.9-0.5,4.1-1.5c1.2-1,2-2.5,2.7-4.4c0.8-2.6,1.2-7.7,1.2-15.2v-43 c0-2.1-0.1-3.9-0.4-5.6c-0.4-2.1-1.1-3.8-2.3-5c-1.9-2-4.5-3.1-7.7-3.4V0H43.4z"/>
<path data-typeface="BaskOldFace" d="M24.6,26.1v37c0,4.3,0,6.9,0,7.8c-0.2,3.4-0.8,6.1-1.9,8.2c-2.3,4.4-6.4,6.5-12.3,6.5c-3.2,0-5.7-0.6-7.6-1.7 C0.9,82.8,0,81.3,0,79.5c0-1,0.3-1.8,0.8-2.5c0.6-0.7,1.3-1,2.1-1c1.6,0,2.6,0.9,3.2,2.8l0.7,2.3c0.7,2.2,2.1,3.3,4.3,3.3 c1.1,0,2.2-0.3,3.1-0.9c0.9-0.6,1.6-1.5,2-2.6c0.4-0.8,0.6-2.2,0.8-3.9c0.2-1.8,0.2-4.2,0.2-7.2V39.6c0-3.7-0.6-6.3-1.7-7.9 s-3.1-2.4-5.8-2.4v-1.2L24.6,26.1z M20.7,8.6c-1.3,0-2.3-0.4-3.2-1.2s-1.3-1.8-1.3-3.1c0-1.2,0.4-2.2,1.3-3.1S19.4,0,20.7,0 s2.3,0.4,3.1,1.2C24.7,2,25.1,3,25.1,4.3c0,1.2-0.4,2.3-1.3,3.1C23,8.2,22,8.6,20.7,8.6z"/>
<path data-typeface="BaucherGotURWExt-Reg" d="M23.5,59c0,5-2.5,7.5-7.6,7.5H7.5C2.5,66.5,0,64,0,59V43h5.3v18.3h12.8V0h5.4V59z"/>
<path data-typeface="BaucherGotURWExt-Reg" d="M13.6,73.1c0,5.1-2.5,7.6-7.4,7.6H0v-4.3h8.7V15.3h4.9V73.1z M13.3,0.8c0.5,0.6,0.8,1.3,0.8,2.2s-0.3,1.6-0.8,2.1 C12.7,5.7,12,6,11.1,6S9.5,5.7,9,5.1C8.4,4.6,8.1,3.9,8.1,3S8.4,1.4,9,0.8C9.5,0.3,10.2,0,11.1,0C12,0,12.7,0.3,13.3,0.8z"/>
<path data-typeface="Bauhaus93" d="M26.5,0v44.9c0,6.8-1.9,12.4-5.8,16.8c-3.8,4.4-8.7,6.6-14.6,6.6c-1.7,0-3.7-0.4-6.1-1.1V48c1,0.4,1.9,0.6,2.7,0.6 c2.6,0,3.9-2.1,3.9-6.3V0H26.5z"/>
<path data-typeface="Bauhaus93" d="M18.6,21.7h18.3v41.1c0,8.6-2,15.4-6.1,20.5C25.6,89.7,18.5,93,9.4,93c-2.8,0-5.9-0.6-9.4-1.8V74c3.1,1.4,5.6,2.1,7.8,2.1 c7.2,0,10.8-5.3,10.8-16L18.6,21.7L18.6,21.7z M27.2,0c2.5,0,4.6,0.9,6.4,2.6c1.8,1.7,2.7,3.8,2.7,6.2c0,2.5-0.9,4.6-2.6,6.3 c-1.7,1.6-3.9,2.4-6.6,2.4c-2.7,0-4.9-0.8-6.6-2.4c-1.7-1.6-2.6-3.7-2.6-6.3c0-2.4,0.9-4.4,2.7-6.2C22.6,0.8,24.8,0,27.2,0z"/>
<path data-typeface="BeeThree" d="M5,58c0,2.1,0.1,2.6,0.3,3.2c0.5,1,1.5,1.6,2.5,1.6c2,0,2.8-1.2,2.8-4.6V0h5.1v57.1c0,2.6-0.1,4-0.5,5.2 c-0.9,2.8-4.1,4.9-7.4,4.9c-2.9,0-6-1.8-7-4C0.2,62,0,60.3,0,57.6V43.3h5L5,58L5,58z"/>
<path data-typeface="BeeThree" d="M9.6,70.5c0,6.8-1.9,9.7-6.4,9.7c-1.3,0-2.3-0.3-3.2-1v-3.8c0.7,0.6,1.3,0.8,2,0.8c1.2,0,2.3-0.8,2.7-1.9 c0.2-0.4,0.2-0.7,0.2-2.5V13.7h4.7V70.5z M9.9,3c0,1.6-1.2,2.8-2.9,2.8c-1.8,0-3-1.2-3-2.9S5.2,0,7,0S9.9,1.1,9.9,3z"/>
<path data-typeface="Bely-Bold" d="M0,77.6c11.2-8.4,13-16,13-29.7V7.5l-9-6V0h30.5v1.5l-9,6v41.9c0,17.2-6.1,25.7-23.5,32.5L0,77.6z"/>
<path data-typeface="Bely-Bold" d="M0,85c6.6-2.8,9.7-6.3,9.7-15.5V34.2l-6.4-4V29l16.6-7.9l1.3,0.6v43.8c0,14.3-7.7,20.7-19.6,22.5L0,85z M8.6,6.9 c0-3.8,3.1-6.9,7-6.9c3.8,0,6.9,3.1,6.9,6.9c0,3.9-3.1,7-6.9,7C11.7,13.9,8.6,10.8,8.6,6.9z"/>
<path data-typeface="Blenny-Black" d="M43.4,0.1c1.2,0,2,0.3,2.5,0.8s0.8,1.4,0.8,2.7v40.9c0,7.2-2.2,13-6.5,17.3c-4.4,4.3-10.2,6.5-17.5,6.5 c-4.3,0-8.1-0.7-11.5-2.1c-3.4-1.4-6.2-3.4-8.2-6s-3-5.6-3-9c0-4.4,1.7-8,5-10.8s7.5-4.3,12.5-4.3c4.9,0,8.9,1.3,11.9,3.8 s4.5,5.8,4.5,9.9c0,3.4-1.1,6.1-3.4,8c-2.2,1.9-5.3,2.9-9.3,2.9c-0.4,0.4-0.6,0.8-0.6,1.3c0,1.1,0.8,1.6,2.4,1.6 c4.1,0,7.5-1.3,10.2-4c2.7-2.6,4-6,4-10.2c0-3.8-1.2-7.1-3.6-9.8c-2.4-2.7-5.9-4.7-10.4-6c-1.3-0.3-2.2-0.8-2.7-1.5 c-0.5-0.6-0.8-1.5-0.8-2.8v-18c0-1.7-0.1-3-0.4-3.7c-0.3-0.7-0.8-1.4-1.5-2S16,4.1,14.4,3.1c-0.3-0.2-0.5-0.5-0.5-0.9V1 c0-0.7,0.4-1,1.2-1L43.4,0.1L43.4,0.1z"/>
<path data-typeface="Blenny-Black" d="M14.9,36.2c0-2.3-0.3-4.1-1-5.3c-0.7-1.2-1.9-2.4-3.7-3.5c-0.5-0.3-0.8-0.5-0.9-0.7c-0.1-0.2-0.1-0.4-0.1-0.6v-1.2 c0-0.7,0.4-1,1.2-1h26.4c1.3,0,2.2,0.3,2.7,0.8s0.8,1.3,0.8,2.5v52.5c0,5.8-2,10.4-6.1,13.9s-9.5,5.3-16.2,5.3 c-5.3,0-9.7-1.1-13-3.3S0,90.5,0,87c0-3.1,1.3-5.7,3.8-7.6s5.8-2.9,9.8-2.9c3.7,0,6.8,0.9,9,2.6c2.3,1.7,3.5,4,3.5,6.8 c0,2-0.7,3.6-2.2,4.9c-1.5,1.2-3.5,1.8-6,1.8c-0.1,0.1-0.1,0.3-0.2,0.4c0,0.1,0,0.3,0,0.4c0,0.5,0.2,0.9,0.7,1.2 c0.4,0.3,1,0.5,1.8,0.5c2.5,0,4.6-0.9,6.3-2.8c1.8-1.8,2.7-4,2.7-6.7c-0.1-2.9-1-5.3-2.8-7.2s-4.6-3.4-8.5-4.6 c-1-0.3-1.7-0.8-2.1-1.5c-0.4-0.6-0.6-1.6-0.6-2.8V36.2H14.9z M13.8,9.9c0-3,1.2-5.4,3.5-7.2S22.8,0,26.7,0s7.1,0.9,9.5,2.7 s3.5,4.2,3.5,7.2c0,2.9-1.2,5.3-3.5,7.1c-2.4,1.8-5.5,2.7-9.5,2.7c-3.9,0-7.1-0.9-9.4-2.7C15,15.2,13.8,12.9,13.8,9.9z"/>
<path data-typeface="BodoniURW-Reg" d="M8.9,2V0h27.3v2h-8.3v49.9c0,6.9-0.8,10.6-3,14.2c-3.2,5.1-9.1,8.6-14.5,8.6C4.6,74.7,0,71.1,0,66.5c0-3.2,2.3-5.6,5.3-5.6 c2.5,0,4.5,2.2,4.5,5c0,1.3-0.3,2.1-1.4,4.1c-0.2,0.3-0.3,0.5-0.3,0.8c0,0.9,1.3,1.8,2.6,1.8c2.2,0,4.6-1.9,5.6-4.5 c0.8-2.1,0.9-3.3,0.9-11.9V2H8.9z"/>
<path data-typeface="BodoniURW-Reg" d="M6.6,28.1v-2h15.7v45.4c0,8.6-0.5,11.7-2.3,14.7c-2.4,3.9-6.6,6.3-10.9,6.3c-5.2,0-9.1-3-9.1-7c0-2.8,1.6-4.6,4.1-4.6 c2.4,0,4,1.7,4,4.2c0,0.6,0,0.7-0.3,2.4c-0.1,0.2-0.1,0.5-0.1,0.8c0,1.5,0.6,2.1,1.9,2.1c1.6,0,2.8-1.2,3.4-3.2 c0.3-1.2,0.3-2.1,0.3-7.4V28.1H6.6z M23.1,5.7c0,3.2-2.5,5.7-5.6,5.7S12,8.9,12,5.6C12,2.4,14.3,0,17.5,0C20.6,0,23.1,2.5,23.1,5.7z "/>
<path data-typeface="BookmanOldStyle" d="M30.1,0h26.1v4.1h-2.6c-1.8,0-3,0.2-3.7,0.5s-1.3,0.9-1.7,1.7s-0.6,2-0.6,3.5v36c0,5.4-0.9,9.7-2.6,12.8s-4.6,5.6-8.4,7.6 s-8.4,3-13.6,3c-6.9,0-12.5-1.8-16.7-5.5S0,55.7,0,50.9c0-2.4,0.6-4.3,1.7-5.7c1.1-1.3,2.5-2,4.2-2c1.3,0,2.4,0.5,3.2,1.5 c0.9,1,1.3,2.2,1.3,3.8c0,0.5-0.1,1.4-0.4,2.8c-0.3,1.5-0.4,2.5-0.4,3.1c0,2.4,1.2,4.6,3.7,6.6s5.6,3,9.5,3c3.2,0,6.1-0.7,8.7-2.1 c2.6-1.4,4.4-3.2,5.5-5.4s1.7-5.3,1.7-9.3V11.6c0-2.4-0.2-4.1-0.6-4.9c-0.4-0.8-1-1.5-1.8-1.9S34,4.2,31.8,4.2h-1.7V0z"/>
<path data-typeface="BookmanOldStyle" d="M12.6,30.2v-4.1c2.4-0.2,4.5-0.6,6.3-1.2c1.8-0.6,4-1.6,6.8-3h3.6v53.2c0,3.8-0.7,7.1-2.2,9.7s-3.5,4.7-6.2,6.2 c-2.6,1.5-5.8,2.3-9.4,2.3c-3.5,0-6.3-0.7-8.4-2.2S0,88.1,0,86.6c0-1.3,0.4-2.4,1.2-3.2c0.8-0.8,1.9-1.3,3.2-1.3 c0.8,0,1.5,0.1,2,0.4c0.6,0.3,1.4,1,2.4,2c1.6,1.6,2.8,2.6,3.8,3.1c0.7,0.4,1.4,0.6,2.3,0.6c2,0,3.6-1,4.8-2.9 c0.9-1.4,1.3-3.8,1.3-7V30.2L12.6,30.2L12.6,30.2z M24.9,0c1.6,0,2.9,0.5,4,1.6s1.7,2.4,1.7,4s-0.6,2.9-1.7,4 c-1.1,1.1-2.5,1.7-4,1.7c-1.6,0-2.9-0.6-4-1.7c-1.1-1.1-1.6-2.4-1.6-4s0.5-2.9,1.6-4C22,0.5,23.4,0,24.9,0z"/>
<path data-typeface="Broadway" d="M57,0l-0.1,11.6l0.2,17.8l0.1,11.8c0,8.1-2.3,14.5-6.9,19.3c-2.7,2.8-6.1,4.9-10.1,6.2s-8.8,2-14.4,2 c-8.2,0-14.5-1.6-18.9-4.9c-2-1.5-3.6-3.3-4.9-5.4c-1.3-2.2-2-4.2-2-6c0-1.4,0.7-2.1,2.1-2.1c1.3,0,2.1,1,2.4,3 c0.6,4.2,3.2,7.4,7.8,9.7c3.7,1.8,7.7,2.7,12,2.7c0.6,0,1.6,0,3-0.1v-2l0.1-13.3l0.2-35.6L27.3,0.2H57V0z"/>
<path data-typeface="Broadway" d="M35.3,17l-0.1,10.4l0.1,7.2v5.6c0,8.7-0.2,14.2-0.5,16.6c-0.4,2.4-1.4,4.9-3.1,7.4c-4,6-10,8.9-18,8.9 c-4.3,0-7.8-0.9-10.5-2.6C1.1,69.1,0,67.7,0,66.3c0-0.6,0.2-1.1,0.6-1.5s0.9-0.7,1.4-0.7c0.6,0,1,0.1,1.3,0.4s0.9,1.2,1.7,2.6 c0.8,1.4,2,2.1,3.3,2.1c0.8,0,1.4-0.3,1.7-0.8s0.5-1.5,0.6-2.9l0.2-15.3l-0.1-16L10.6,26l-0.1-7.2V17H35.3z M22.8,0 c8.5,0,12.8,2.2,12.8,6.7c0,2.2-1.1,3.9-3.4,5.1s-5.5,1.8-9.6,1.8c-8.2,0-12.3-2.3-12.3-6.9C10.4,2.3,14.5,0,22.8,0z"/>
<path data-typeface="BrothersOT-Regular" d="M0,53.5L10,57h5.5l5-2.5l2.5-5V10L20.5,0h20l-2,8v43l1,6l-13,13h-21L0,53.5z"/>
<path data-typeface="BrothersOT-Regular" d="M7,89H0V79l5-2.5l4-8v-38l-3.5-7L22,18v56L7,89z M19,14h-7l-4-4V4l4-4h7l4,4v6L19,14z"/>
<path data-typeface="BuenaParkJF" d="M45.8,5.4c0,0-5.6,0-5.6,4.4v42c0,6.4-0.6,12.8-4.3,19.1c-3,5-11.4,10.3-19.7,10.4C9.8,81.3,0,78.9,0,71 c0-4.5,3.9-8.1,8.8-8.1s8.8,3.6,8.8,8.1c0,1-0.2,1.9-0.5,2.8c1.4-0.2,2.9-0.7,4-1.4c2.5-1.8,3.2-4.7,3.2-7.6V9.6 c0-4.1-5.6-4.2-5.6-4.2c-2.1,0-2.9-1.4-2.8-2.8C16,1.3,17,0,18.7,0h27.1c1.9,0,2.8,1,2.9,2.2C48.8,3.7,47.7,5.4,45.8,5.4z"/>
<path data-typeface="BuenaParkJF" d="M27.8,21.7l-0.1,43.1c0,6.4-0.2,13-4,19.3c-3.5,5.8-10.1,10.5-17.3,10.5C3.5,94.6,1,93.8,0,93v-5.7c0,0,0.3,0,0.8,0 c1.8,0,6-0.1,8.2-1.7c2.5-1.8,3-5.3,3-7.7l-0.1-46.7c0-4.1-3.6-4.1-3.6-4.1c-1.9,0-2.8-1.3-2.8-2.7c0-1.3,1.1-2.7,2.8-2.7H27.8z  M19.1,16.2C13.5,16.2,9,12.6,9,8.1S13.5,0,19.1,0c5.5,0,10,3.6,10,8.1S24.6,16.2,19.1,16.2z"/>
<path data-typeface="Cafeteria-Regular" d="M2.6,85.9c-0.3-1.5-1.8-5.1-2.6-6.7c8-3.4,8.8-10,8.8-23.9c0-8,0-14.4-0.2-23.6C8.4,19.3,7.8,4.9,7.7,0 c2.3,0.5,6.2,0.9,8.5,1c-0.1,4,0.3,16.2,0.3,26c0,16.4,0.1,23.8,0.1,28.5C16.6,73.7,14.1,80.5,2.6,85.9z"/>
<path data-typeface="Cafeteria-Regular" d="M14.8,33.4c-0.1,2.8-0.2,26.5-0.2,28.6c0,15.2-5.2,21-9.8,24.6c-1.4-1.7-3-3.3-4.8-4.6c5.6-4.4,8-11.2,7.7-17.6 c-0.1-2,0.1-9.3,0-12.2c-0.2-8.4-0.2-28.7-0.2-31.3c1.6,0.3,7,0.5,7.9,0.4C15,22.8,14.9,30.9,14.8,33.4z M11,8.9 c-2.7,0-4.9-2-4.9-4.5C6.1,2.4,8.4,0,11,0s4.8,1.6,4.8,4.3C15.8,6.6,13.5,8.9,11,8.9z"/>
<path data-typeface="Cambria" d="M18.5,63.3c0,4.4-0.5,8-1.5,10.7s-2.8,5-5.2,6.9S6,84.4,1.6,85.7L0,81.4c2.9-1.1,4.9-2.2,6.1-3.3c1.2-1.1,2-2.5,2.5-4.2 s0.7-4,0.7-6.8V12.2c0-2.8-0.1-4.8-0.4-5.8C8.6,5.4,8.2,4.6,7.5,4C6.9,3.4,5.6,2.9,3.6,2.4V0h20.6v2.4c-1.4,0.4-2.5,0.7-3.1,1.1 c-0.6,0.4-1.1,0.8-1.5,1.3s-0.7,1.3-0.8,2.4c-0.2,1.1-0.3,2.7-0.3,5L18.5,63.3L18.5,63.3z"/>
<path data-typeface="Cambria" d="M17.7,64.9c0,4.6-0.5,8.2-1.4,10.9c-0.9,2.7-2.6,5.1-4.9,7c-2.3,1.9-5.6,3.5-9.7,4.7L0,83.2c2-0.8,3.6-1.5,4.6-2.2 c1.1-0.7,1.9-1.5,2.6-2.4s1.2-2.2,1.6-3.7c0.4-1.6,0.5-3.6,0.5-6V32.6c0-2.5,0-4.4-0.1-5.5s-0.3-2-0.6-2.6S7.8,23.4,7.1,23 s-1.9-0.8-3.7-1.1v-2.6l11.4-0.4h3L17.7,64.9L17.7,64.9z M18,0v9.5H9.1V0H18z"/>
<path data-typeface="CasablancaURW-Med" d="M19.2,0v43.9c-0.1,9.2-1.4,13.9-4.9,17.7C10.8,65.5,5.1,68,0,67.9V57.7c7-0.8,9.1-4.4,8.8-15V0H19.2z"/>
<path data-typeface="CasablancaURW-Med" d="M17.6,21.9v38.4C17.9,74.5,12.3,82,0,83.7v-9.9c6-1,8.1-4.8,7.9-14V21.9L17.6,21.9L17.6,21.9z M17.7,0v11.1H8.1V0H17.7z"/>
<path data-typeface="Centaur" d="M3.5,1.9L3.2,0c0.7,0,3.1,0.1,7.3,0.3c4.1,0.2,6.6,0.3,7.3,0.3c2.2,0,6.5-0.2,13-0.6l0.1,1.9c-3,0.2-5.1,0.6-6.3,1.1 s-2,1.6-2.3,3.2c-0.4,1.6-0.6,4.4-0.6,8.4c-0.1,1.8-0.2,4.1-0.2,6.7c0,2.7,0,5.2-0.1,7.6v7.5c0,1.3,0,5.3,0.1,12 c0.1,6.8,0.1,11.8,0.1,15.3c0,2.4-0.1,4.6-0.2,6.5c-2.8,4-5.8,7.7-8.9,10.8c-3.1,3.2-6.2,4.8-9.3,4.8c-0.7,0-1.4-0.2-2.1-0.7 c-0.7-0.5-1.1-1-1.1-1.4c0-0.6,0.8-1.4,2.5-2.4s2.8-1.5,3.5-1.5c0.2,0,1.1,0.3,2.7,0.9c4.1,0,6.1-8.8,6.1-26.4V34.9 c0-8.1-0.1-14.5-0.3-19.1S14,8.1,13.6,6.6s-1-2.6-1.9-3.3S9.5,2.2,7.9,2C6.2,1.9,4.8,1.8,3.5,1.9z"/>
<path data-typeface="Centaur" d="M1.1,31.4l-0.7-1.5c5.5-2.2,10.1-4.9,13.8-8c0.3,0.3,0.6,0.6,0.8,0.7c-0.8,2.5-1.2,6.4-1.2,11.6v15.3L14,66.3 c0.1,3.2,0,5.7-0.3,7.3s-1,3.2-2.2,4.8c-1.2,1.5-3.3,3.5-6.3,5.9c-1.4,1.1-2.2,2-2.6,2.7c-0.4,0.7-0.7,1.7-0.9,3l-0.2,0.1L0,88.7 c0-1.5,0.4-2.9,1-4.1s1.5-2.6,2.7-4.1c1.5-2,2.5-3.8,3.1-5.4c0.6-1.7,1-3.6,1.1-5.8c0.1-2.2,0.2-5.9,0.2-11c0-4.9-0.1-9.6-0.2-14.1 c-0.1-4.5-0.4-7.6-0.7-9.3c-0.3-1.3-0.7-2.3-1.1-3c-0.5-0.7-1.3-1-2.4-1C3.3,30.9,2.5,31.1,1.1,31.4z M7.9,4.3C7.9,3,8.3,2,9.2,1.2 C10,0.4,11,0,12.1,0c0.7,0,1.3,0.2,1.9,0.5c0.6,0.3,1.1,0.8,1.4,1.3c0.3,0.6,0.5,1.2,0.5,1.8c0,1-0.4,1.9-1.3,2.8 c-0.9,0.9-1.9,1.3-3.1,1.3c-1,0-1.9-0.3-2.6-1C8.3,6.2,7.9,5.4,7.9,4.3z"/>
<path data-typeface="ChaparralPro-Light" d="M34.4,3.7c-0.2,0-0.3,0.1-0.3,0.2c0,11.9,0,23.8,0,35.8c0,9.6-1.1,14.3-4.5,19.3c-2.9,4.2-8.4,7.9-17.6,7.9 c-2.5,0-6.8-0.2-10.8-1.2C0.7,60.9,0.4,55.9,0,51.4c1.3-0.3,2.7-0.5,3.9-0.5l1.6,9.7c0.1,0.7,0.3,1,0.8,1.3c2,1,5.3,1.1,7,1.1 c6.1,0,10.4-2.8,12.5-6.3c2.9-4.6,2.9-9.4,2.9-17.4c0-11.5,0-23.8-0.1-35.6L15.5,3.4c0-1.2,0.1-2.4,0.1-3.4c5,0,11.3,0,16.3,0 c3.4,0,7.2,0,10.2,0c0,1,0,2.2-0.1,3.4L34.4,3.7z"/>
<path data-typeface="ChaparralPro-Light" d="M4.4,25.1c0-1,0-2,0-3c3.8-0.7,12.6-2.7,13.5-2.7c0.2,0,0.2,0.1,0.2,0.3C18,29.4,18,43.3,18,53.1c0,9.2-0.9,14.7-4.3,21.1 c-2,3.6-4.7,7.3-9.2,10c-1.1,0-4-2-4.5-3.6c3.8-1.6,7.5-4,9.6-7.7c1.8-3.3,3.3-8.3,3.2-17l-0.1-30.7L4.4,25.1z M18.4,4.7 c0,2-1.5,4.2-4,4.2c-2.9,0-4.4-2.2-4.4-4.4C10,2.6,11.2,0,14.3,0C17.5,0,18.4,2.9,18.4,4.7z"/>
<path data-typeface="CirceSlabA-ExtraLight" d="M18.3,4H7.8V0h23.9v4H23v50.7c0,9.8-3.4,16.2-13.7,16.2c-4,0-7.2-1.2-9.3-2.8l1.8-3.8c1.6,1.2,4.3,2.3,7,2.3 c7.8,0,9.5-5.4,9.5-12.3L18.3,4L18.3,4z"/>
<path data-typeface="CirceSlabA-ExtraLight" d="M13,22.4h11.1v48.3c0,11-4.2,17.5-13.1,17.5c-4.9,0-11-3-11-8.3c0-2.2,1.4-3.6,3.6-3.6c2.5,0,3.6,1.7,3.6,3.2 c0,0.7-0.4,1.5-1.2,1.9c0.5,1.3,2.7,3.1,5.5,3.1c5.5,0,8.1-4.9,8.1-13.5c0-5,0-14.7,0-21.9V25.9H13V22.4z M17.6,3.6 c0-2.1,1.8-3.6,3.9-3.6c1.9,0,3.7,1.5,3.7,3.6c0,2.4-1.8,3.9-3.7,3.9C19.4,7.5,17.6,6,17.6,3.6z"/>
<path data-typeface="ClarendonURW-Reg" d="M17.7,0h35v7.6h-3c-5.8-0.1-6.5,0.7-6.5,6.1v31.7c0,9.6-1.2,13.7-5,17.4c-3.9,3.8-10,5.9-17.1,5.9C8.7,68.7,0,61.8,0,51.9 c0-6,3.6-9.8,9.4-9.8c4.8,0,8,3.2,8,8c0,4.2-2,6.6-6.7,8c3.1,2.3,4.7,2.9,8.2,2.9c3.6,0,6.5-1.2,8.1-3.4c1.5-2,1.9-4.3,1.9-10.2 V13.7c0-5.4-0.7-6.2-6.5-6.1h-4.7L17.7,0L17.7,0z"/>
<path data-typeface="ClarendonURW-Reg" d="M8.1,20.6h21.8v49.5c0,6.7-0.8,10.3-2.8,13c-2.7,3.6-7.7,5.8-13.5,5.8C5.8,88.9,0,84.6,0,78.8c0-4.1,2.9-7,7-7 c3.7,0,6,2.2,6,5.7c0,3.2-1.5,4.7-5.3,5.4c2,0.7,3.3,1,4.3,1c1.9,0,3.8-1.1,4.7-2.7c0.9-1.7,1.1-3.2,1.1-7.9V33.2 c0-4.9-0.7-5.7-5.8-5.9H8.1L8.1,20.6L8.1,20.6z M30.3,7.4c0,4.1-3.3,7.4-7.3,7.4c-4.2,0-7.5-3.3-7.5-7.6c0-3.9,3.4-7.2,7.4-7.2 C27,0,30.3,3.3,30.3,7.4z"/>
<path data-typeface="Clavo-ExtraLight" d="M27.9,2.6c-2.5,0-6.9,0.3-10.5,1v68.8C17.4,88.4,1.1,93,1.1,93c-0.8-0.5-1.3-1.8-1.1-3.1c0.7-0.4,13-4.5,13-17.4V3.4 C9.5,2.9,5.3,2.6,2.6,2.6C2.6,1.7,2.9,0.9,3,0h10h14.4C27.6,0.8,27.9,1.7,27.9,2.6L27.9,2.6z"/>
<path data-typeface="Clavo-ExtraLight" d="M18,81.2c0,7.2-3.9,11.9-9.5,11.9c-4.8,0-8.5-2.7-8.5-2.7c0-1.4,0.3-2.6,1.1-3c0,0,2.9,2.5,6.8,2.5c3.6,0,6-3.5,6-8.7v-55 c-3.1,1.1-6.5,1.6-10.1,1.6c-0.2-0.8-0.3-1.6-0.3-2.3c2.7-0.3,7.7-1.1,12-3.7h2.6v0.1L18,81.2L18,81.2z M12.2,3.3 c0-1.8,1.5-3.3,3.3-3.3s3.3,1.5,3.3,3.3s-1.5,3.3-3.3,3.3C13.7,6.6,12.2,5.1,12.2,3.3z"/>
<path data-typeface="CloneRounded-Me" d="M10.9,8.9c-2.4,0-4.4-2-4.4-4.4C6.5,2,8.5,0,10.9,0h19.8c2.8,0,5,2.2,5,5v41.7c0,13.6-6.5,21.3-20.3,21.3c-3.8,0-9-1-13-3.4 C0.8,63.5,0,62,0,60.3c0-2.2,1.6-4.2,3.9-4.2c0.9,0,1.9,0.1,3,0.7c2.4,1.1,5.5,2.4,8.5,2.4c6.5,0,10.3-3.8,10.3-10.5V8.9L10.9,8.9 L10.9,8.9z"/>
<path data-typeface="CloneRounded-Me" d="M8.4,29c-2.4,0-4.1-1.8-4.1-4.2c0-2.3,1.7-4.2,4.1-4.2h14c2.4,0,4.2,1.9,4.2,4.3V68c0,14.5-9.7,21.4-22.1,21.7 c-2.5,0-4.5-2-4.5-4.5s2.1-4.1,4.5-4.3c9.4-0.5,12.2-5.5,12.2-13V29L8.4,29L8.4,29z M12.9,6.5c0-3.6,2.9-6.5,6.5-6.5 s6.5,2.9,6.5,6.5S23,13,19.4,13S12.9,10.1,12.9,6.5z"/>
<path data-typeface="ColtSoft-Demi" d="M13.5,48.7c4.3,7.4,14.9,12.5,25.3,12.5c13.1,0,26-7.8,26-25.8V17.6c0-5.2-1.8-6.3-6.2-6.3h-9.5c-1.7,0-2.6-0.9-2.6-2.6V2.6 c0-1.7,0.9-2.6,2.6-2.6h59.1c1.7,0,2.6,0.9,2.6,2.6v6.1c0,1.7-0.9,2.6-2.6,2.6H99c-4.4,0-6.2,1.1-6.2,6.3v21.2 c0,23.1-23.1,34.1-46.3,34.1C23.3,72.9,0,61.4,0,42.3c0-12.5,9.8-18.8,19-18.8c7.9,0,15.3,4.7,15.3,13.7c0,11.2-11.7,15.2-19.7,10.6 C13,46.9,12.5,47.1,13.5,48.7z"/>
<path data-typeface="ColtSoft-Demi" d="M13.5,48.7c4.3,7.4,14.9,12.5,25.3,12.5c13.1,0,26-7.8,26-25.8V17.6c0-5.2-1.8-6.3-6.2-6.3h-9.5c-1.7,0-2.6-0.9-2.6-2.6V2.6 c0-1.7,0.9-2.6,2.6-2.6h59.1c1.7,0,2.6,0.9,2.6,2.6v6.1c0,1.7-0.9,2.6-2.6,2.6H99c-4.4,0-6.2,1.1-6.2,6.3v21.2 c0,23.1-23.1,34.1-46.3,34.1C23.3,72.9,0,61.4,0,42.3c0-12.5,9.8-18.8,19-18.8c7.9,0,15.3,4.7,15.3,13.7c0,11.2-11.7,15.2-19.7,10.6 C13,46.9,12.5,47.1,13.5,48.7z"/>
<path data-typeface="CondorComp-Medium" d="M0,73.3v-3.9c1.7,0.2,3.7,0.3,5.6,0.3c3.6,0,4.9-1.3,4.9-6.2V0h11.1v61.1c0,11.8-5.3,13.1-13.2,13.1 C5.2,74.2,2.5,73.7,0,73.3z"/>
<path data-typeface="CondorComp-Medium" d="M0,83.3v-3.5c0.7,0.1,1.3,0.1,2,0.1c2.9,0,3.9-1,3.9-5.4V17.2h10.8v54.6c0,9.5-3.8,12.2-11.3,12.2C3.3,84,1.5,83.7,0,83.3z  M5.9,0h10.8v10.5H5.9V0z"/>
<path data-typeface="CooperBlack" d="M43,0c3.6,0,7.4,0.3,11.1,1c3.1,0.5,5.3,1.2,6.6,2.1c1.3,0.9,2,2.2,2,3.8c0,1-0.2,1.8-0.7,2.4c-0.5,0.6-1.5,1.3-3.2,2.1 c-1.9,1-3,2.1-3.2,3.4s-0.5,6.4-0.8,15.4c-0.1,8.6-0.2,13.8-0.3,15.5c-0.1,1.7-0.3,3.4-0.6,5c-0.9,4.8-2.8,8.5-5.7,11.2 c-2.3,2.2-5.4,4-9,5.2c-3.7,1.3-7.6,1.9-11.6,1.9c-3.6,0-7.2-0.5-10.9-1.4s-6.8-2.2-9.4-3.9c-2.2-1.4-4-3.2-5.3-5.5s-2-4.8-2-7.4 c0-3.3,1-5.9,3.1-8.1c2.1-2.1,4.6-3.2,7.7-3.2c3,0,5.6,0.9,7.7,2.7s3.2,4.1,3.2,6.7c0,0.7-0.2,1.8-0.6,3.4C21,52.6,21,53,21,53.4 c0,1,0.4,1.9,1.1,2.5c0.7,0.7,1.7,1,3,1c2.2,0,3.9-1,5.3-2.9c1.3-2,2-4.5,2-7.7v-4.4l-0.1-12c-0.3-7.3-0.5-11.5-0.7-12.8 c-0.1-1.3-0.5-2.3-1.1-3.1c-0.5-0.7-0.9-1.1-1.3-1.3s-1.4-0.5-3.1-0.9c-0.8-0.2-1.4-0.6-2-1.4c-0.6-0.7-0.8-1.5-0.8-2.4 c0-1.8,0.7-3.2,2.1-4.2c1.4-1.1,3.6-1.9,6.8-2.6C35.7,0.4,39.3,0,43,0z"/>
<path data-typeface="CooperBlack" d="M30.6,22.2v43.3c0,4.4-0.3,7.8-1,10.2s-1.9,4.3-3.5,5.7c-1.7,1.4-3.9,2.5-6.6,3.4s-5.5,1.3-8.3,1.3c-3.2,0-5.9-0.6-8-1.9 S0,81.4,0,79.5c0-0.8,0.3-1.6,0.9-2.2s1.3-0.9,2.2-0.9c0.4,0,0.9,0,1.6,0.1s1.1,0.1,1.2,0.1c0.6,0,1.1-0.3,1.6-0.8 c0.5-0.6,0.7-1.2,0.7-1.9c0-0.3,0-0.8-0.1-1.4c-0.2-1.2-0.3-2.3-0.3-3.4v-31c0-1.5-0.3-2.6-0.8-3.4c-0.5-0.8-1.4-1.5-2.6-2 c-1.9-0.7-2.8-1.9-2.8-3.4c0-1.7,0.7-3.2,2.2-4.5s3.9-2.4,7.3-3.5c2.4-0.7,5.3-1.4,8.8-2.1c3.5-0.7,6-1,7.7-1c1.1,0,1.9,0.3,2.4,0.9 C30.3,19.7,30.6,20.7,30.6,22.2z M20.2,0c2.8,0,5.1,0.5,6.7,1.6c1.7,1.1,2.5,2.5,2.5,4.3c0,2.5-1.3,4.5-3.8,6 c-4,2.3-8.8,3.5-14.4,3.5c-2.3,0-4.2-0.5-5.7-1.4c-1.9-1.2-2.8-2.8-2.8-4.9c0-2.8,2-5,6-6.6C12.9,0.8,16.7,0,20.2,0z"/>
<path data-typeface="CostaStd-Bold" d="M11,72.3c-6.7,0-11-3.5-11-9.3c0-0.7,0-1.6,0.1-2.2l0.6-0.4c2,1.1,4.5,1.6,7.2,1.6c8.8,0,11.9-6,11.9-16.5V11H1.2V0h34.9 v43.7C36.1,61.2,25.3,72.3,11,72.3z"/>
<path data-typeface="CostaStd-Bold" d="M10.3,96.2C4.5,96.2,0,93.3,0,87.5c0-0.7,0.1-1.4,0.2-2.1l0.6-0.6c1.7,1.3,3.8,1.8,5.8,1.8c8.4,0,11.6-5.5,11.6-14.7v-38 c0-2.7-0.8-4.7-3.3-4.7c-0.8,0-1.6,0.2-2.2,0.6l-0.5-0.4c0.5-4.5,4-8.2,10.2-8.2c6.9,0,10.6,4.5,10.6,11.9v36.7 C33,83.4,24.4,96.2,10.3,96.2z M25.7,14.9c-5,0-8.3-3-8.3-7.4c0-4,2.9-7.5,8.3-7.5c5.1,0,8.2,3.1,8.2,7.5 C33.9,12,30.6,14.9,25.7,14.9z"/>
<path data-typeface="Countach-Regular" d="M15.9,72H0v-9.7h10.8l2.1-2.2V0h10.8v60C23.7,67.6,20.3,70.4,15.9,72z"/>
<path data-typeface="Countach-Regular" d="M16.8,15v57c0,7.6-3.4,10.4-7.8,12H0v-9.2h4.6l2.1-2.2V15L16.8,15L16.8,15z M6.7,0h10.1v8.7H6.7L6.7,0L6.7,0z"/>
<path data-typeface="CourierPrime" d="M14.1,6.6c-1.1,0-1.9-0.2-2.4-0.7S11,4.5,11,3.3c0-1.2,0.2-2.1,0.7-2.6S13,0,14.1,0h33.8c1.1,0,1.9,0.2,2.4,0.7 S51,2.1,51,3.3c0,1.2-0.2,2.1-0.7,2.6S49,6.6,47.9,6.6h-9.8v35.1c0,5.8-1.7,10.1-5,13S24.9,59,18.5,59c-3.9,0-7.3-0.7-10.3-2.1 s-5.5-3.1-7.4-5.3C0.3,51,0,50.2,0,49.1V35.2c0-1.1,0.3-2,0.8-2.4s1.5-0.7,2.9-0.7s2.3,0.2,2.9,0.7s0.8,1.3,0.8,2.4v13 c2.7,2.4,6.5,3.7,11.2,3.7c4.3,0,7.4-1,9.3-2.9c1.9-1.9,2.8-4.8,2.8-8.7V6.7H14.1V6.6z"/>
<path data-typeface="CourierPrime" d="M31.9,21.3c1.1,0,1.9,0.2,2.4,0.7s0.7,1.4,0.7,2.6v44.8c0,2.8-0.3,5.3-0.9,7.4s-1.5,3.9-2.8,5.4c-1.3,1.4-2.9,2.5-5,3.3 c-2,0.7-4.4,1.1-7.3,1.1c-1.4,0-2.9-0.1-4.4-0.4s-3-0.7-4.5-1.1c-1.5-0.5-3-1.1-4.4-1.7c-1.4-0.7-2.8-1.4-4-2.2 c-0.8-0.5-1.3-1.1-1.6-1.9c-0.2-0.7,0-1.7,0.6-2.9c0.6-1.2,1.3-1.9,2.1-2.1s1.5-0.1,2.3,0.4c2.1,1.4,4.4,2.6,6.8,3.5 c2.4,0.9,4.8,1.4,7,1.4c1.6,0,3-0.2,4.1-0.7c1.1-0.4,2-1.1,2.7-2s1.1-2,1.4-3.4c0.3-1.4,0.4-2.9,0.4-4.7V27.9H6.8 c-1.1,0-1.9-0.2-2.4-0.7s-0.7-1.4-0.7-2.6c0-1.2,0.2-2.1,0.7-2.6s1.3-0.7,2.4-0.7L31.9,21.3L31.9,21.3z M35,9.4c0,1.1-0.3,2-0.9,2.4 c-0.6,0.5-1.9,0.7-3.7,0.7s-3.1-0.2-3.7-0.7c-0.6-0.5-0.9-1.3-0.9-2.4V3.1c0-1.1,0.3-2,0.9-2.4C27.3,0.2,28.6,0,30.4,0 s3.1,0.2,3.7,0.7C34.7,1.2,35,2,35,3.1V9.4z"/>
<path data-typeface="CrawModURW-Reg" d="M14.6,0H54v3.2H43.5v45.2c0,14.3-8.1,22.2-22.8,22.2C8.3,70.6,0,64.4,0,55.2C0,49.8,3.6,46,8.7,46c4.8,0,8.2,3.2,8.2,7.8 s-3,7.8-7.4,7.8c-2.2,0-3.9-0.6-5.7-2.2c2,4.6,8.1,8,14.3,8c4.4,0,8.6-1.8,10.8-4.7c1.3-1.7,1.8-3.3,1.8-6V3.2H14.6V0z"/>
<path data-typeface="CrawModURW-Reg" d="M7.5,20.7h6.2h4c1.9,0,1.9,0,8.6-0.5c4.4-0.4,4.4-0.4,5.6-0.4v48.4c0,4.7-0.3,6.8-1.5,9.8c-2.6,6.5-9.5,11-17,11 S0,84.5,0,78.8c0-4,3.1-7.3,6.9-7.3c3.6,0,6.7,2.9,6.7,6.4c0,3.4-2.8,6.2-6.5,6.5c1.9,1.5,3.4,2.1,5.5,2.1c4.1,0,7.5-3.4,7.3-7.3 L19.8,76c-0.1-1.4-0.1-2.4-0.2-3.1V23.7h-13v-3H7.5z M33.3,6.9c0,3.9-3.1,7-7.2,7c-4.2,0-7.4-3.1-7.4-7.2c0-4,2.9-6.7,7.1-6.7 C30.3,0,33.3,2.8,33.3,6.9z"/>
<path data-typeface="CronosPro-Disp" d="M10.3,13.4c0-6.7-0.1-10.8-0.3-12.6C11.7,0.5,15.6,0,17.1,0c1.3,0,1.5,0.6,1.5,5.1v42.5c0,13.7-1.6,19.9-6.6,24.5 c-2.5,2.3-6.1,3.8-8.3,3.8c-1.8,0-3.4-1.7-3.7-3.7l0.1-0.1c8.1-2.3,10.2-6.2,10.2-24.4V13.4z"/>
<path data-typeface="CronosPro-Disp" d="M0,82.5c7.1-3.1,9.7-7.3,9.7-25.5V32.1c0-6.1-0.2-9.1-0.4-11.2c1.6-0.6,5.5-1,6.9-1c1,0,1.4,0.5,1.4,6.2v31.3 c0,8.1-0.6,15.3-3.8,20.8c-3.1,5.1-8,7.7-10.2,7.7c-1.6,0-3-1.4-3.6-3.2L0,82.5L0,82.5z M18.2,4.8c0,2.7-1.8,5-4.7,5 C10.9,9.8,9,8,9,5c0-3.4,2.7-5,4.8-5C16.6,0,18.2,2.2,18.2,4.8z"/>
<path data-typeface="Dapifer-Black" d="M0,83.2c17-7.5,20-15.4,20-32.3V10h-7.8V0h36.1v10H41v38.7c0,21.1-7.1,34-38.7,40.8L0,83.2z"/>
<path data-typeface="Dapifer-Black" d="M0,95.9c9.6-5.3,14.2-11.7,14.2-25.8V36.6L8.3,37V27l24.2-1.9v45.2c0,13.8-8.5,22.6-21.7,25.6H0z M12.4,9.8 C12.4,4.4,17,0,22.7,0S33,4.4,33,9.8s-4.6,9.8-10.3,9.8C17,19.6,12.4,15.2,12.4,9.8z"/>
<path data-typeface="Divenire-Regular" d="M5.2,0h8.9v51.3c0,6.7-3.4,15.9-6.5,21.7L0,70c2.5-5.5,5.2-13.3,5.2-18.7L5.2,0L5.2,0z"/>
<path data-typeface="Divenire-Regular" d="M5.6,34.1L5.3,20.5l8.2-0.4l0.8,13v38.1c0,6.7-4.5,16.3-7.5,21.7L0,89.7c2.5-5.2,5.6-13.5,5.6-19V34.1z M5.4,0h9.1v9.6H5.4 V0z"/>
<path data-typeface="DogmaOT-Bold" d="M32.2,45.2C32.2,73.7,17.1,75.8,0,76v-7c8.7-2.1,11.3-6.7,11.3-22.5V0h20.9V45.2z"/>
<path data-typeface="DogmaOT-Bold" d="M32.2,56.2C32.2,84.7,17.1,86.8,0,87v-7c8.7-2.1,11.3-6.7,11.3-22.5V28.4h20.9V56.2z M21.6,20.8c-5.7,0-10.4-4.7-10.4-10.4 S15.9,0,21.6,0s10.5,4.7,10.5,10.4S27.3,20.8,21.6,20.8z"/>
<path data-typeface="Edita-Book" d="M27.8,5.2v53.4c0,20.4-10.1,26.8-18.1,26.8c-4.1,0-9.7-2.2-9.7-6.9c0-3.1,2.5-4.9,5.7-4.9c1.5,2.6,5.1,6.9,7.9,6.9 c3.7,0,4-8.6,4-15.5c0-5.9,0-36.7-0.1-59.8l-6.8-2c-1-0.3-1.6-0.9-1.6-1.9C9.1,0.5,9.3,0,9.3,0s9.2,0.5,13.5,0.5S36,0,36,0 s0.2,0.5,0.2,1.3c0,1-0.6,1.6-1.6,1.9L27.8,5.2z"/>
<path data-typeface="Edita-Book" d="M8.7,28.3c0,0-4.2-0.3-6.5-0.7C0.6,27.3,0,26.7,0,25.8c0-0.6,0.2-1.1,0.4-1.3c3.2,0,10.3-1,15-2.5c0.6-0.2,1.3-0.4,1.6-0.4 c0.7,0,1.2,0.5,1.2,2.1v45.1c0,16.2-9,24.5-16,24.5c-1.3,0-1.6-0.9-1.6-1.9c5.7-1.2,8.1-7.3,8.1-15.6V28.3z M6.4,5.9 c0-3.3,2.8-5.9,6-5.9c3.4,0,6.2,2.6,6.2,5.9c0,3.2-2.8,6-6.2,6C9.2,11.9,6.4,9.1,6.4,5.9z"/>
<path data-typeface="ElektrixOT-Bold" d="M21,0l-3,58L4,69.5L0,64l8-11.5V0H21z"/>
<path data-typeface="ElektrixOT-Bold" d="M0,10V0h15l-1,10H0z M13,17.5l-6.5,73l-6.5-1v-72H13z"/>
<path data-typeface="Elephant-Regular" d="M30.5,61.4l0.2-4.6V12.5l-0.2-4.6c-0.2-2.2-0.7-3.7-1.4-4.5s-1.7-1.2-3-1.4c-1.3-0.2-2.4-0.3-3.3-0.3 c-0.9,0-1.7-0.1-2.3-0.1V0h45.2v1.6L61,2c-2,0.3-3.4,0.8-4.1,1.6c-0.7,0.8-1.2,2.3-1.4,4.5l-0.2,4.6v34.7c0,7.3-3.5,13.6-10.5,18.8 c-7,5.2-14.8,7.9-23.4,7.9c-6.3,0-11.4-1.5-15.4-4.4s-6-7-6-12.3c0-3.3,1.2-6.2,3.7-8.6s5.4-3.6,8.8-3.6c4,0,7.2,1.1,9.5,3.4 s3.5,5.2,3.5,8.9c0,3.2-0.8,5.8-2.3,7.7c-1.7,1.8-3.4,3.6-5.1,5.4c0,0.7,0.5,1.1,1.4,1.3c0.9,0.2,2.1,0.4,3.5,0.4 c2.9,0,4.8-1.1,5.9-3.4C30,66.7,30.5,64.2,30.5,61.4z"/>
<path data-typeface="Elephant-Regular" d="M42.3,68.2c0,1.5-0.1,3-0.2,4.7S42,75.5,42,75.7c0,5-2.6,9.8-7.9,14.3c-5.3,4.5-11.2,6.8-17.8,6.8c-4.7,0-8.6-0.8-11.7-2.5 C1.5,92.6,0,89.9,0,86.1c0-2.4,0.9-4.4,2.8-6.1c1.8-1.6,4-2.4,6.4-2.4c2.3,0,4.4,0.7,6.2,2.2s2.7,3.4,2.7,5.7c0,1.8-0.6,3.4-1.9,4.8 c-1.2,1.4-1.8,2.4-1.8,3c0,0.5,0.3,1,0.8,1.3s1.3,0.5,2.3,0.5c2.1,0,3.5-1.2,4.3-3.6s1.3-5.6,1.3-9.5l0.1-10.5V37.4l-0.1-4.1 c-0.1-1.6-0.3-2.8-0.6-3.6c-0.3-0.8-1.5-1.3-3.6-1.5L15.2,28v-1.6h27.3v41.8H42.3z M42.2,9.5c0,2.7-1,4.9-2.9,6.8 c-1.9,1.8-4.2,2.8-7,2.8c-2.7,0-5-0.9-6.9-2.8c-1.9-1.8-2.9-4.1-2.9-6.8c0-2.6,1-4.8,2.9-6.7C27.3,1,29.6,0,32.3,0 c2.7,0,5.1,0.9,7,2.7C41.2,4.5,42.2,6.7,42.2,9.5z"/>
<path data-typeface="EloquentJFPro-Regular" d="M69.2,1.3h-4.4c-2.6,0-5.6,1.4-5.6,5.1v53.9c0,14.2-16.4,22.3-32,22.3C13.3,82.6,0,76.1,0,62c0-8.4,7.1-14.8,14.3-14.8 c7.8,0,13.8,6.4,13.8,13.3c0,7-5.6,12.7-12.6,12.7c-3.2,0-5.6-1.1-6.5-1.1c-0.2,0-0.4,0.1-0.4,0.3c0,3.1,5.4,8.3,13.5,8.3 c7.9,0,13.4-5.4,13.4-15V7.9c0-5.1-2.4-6.6-6.6-6.6h-4.7V0h45L69.2,1.3L69.2,1.3z"/>
<path data-typeface="EloquentJFPro-Regular" d="M44.7,77.3c0,16.3-13.6,24.1-29.2,24.1C6.2,101.4,0,96.5,0,89.3c0-5.5,4.6-9.8,10-9.8c5.7,0,10.3,4.1,10.3,9.5 c0,5.5-4.5,9.3-9.7,9.3c-0.7,0-1,0.1-1,0.4c0,0.8,2.1,1.6,5.1,1.6c5,0,9.1-2.4,9.1-9.3V31.3c0-4.4-1.9-6.1-3.6-6.1h-3.4v-1.4h27.9 L44.7,77.3L44.7,77.3z M33.7,20.3c-6.4,0-11.6-4.5-11.6-10.2C22.1,4.5,27.3,0,33.7,0s11.6,4.5,11.6,10.1 C45.3,15.8,40.1,20.3,33.7,20.3z"/>
<path data-typeface="Erbaum-Regular" d="M46.6,0v54c0,12.2-6,17.9-18.9,17.9h-8.9C6,71.9,0,66.2,0,54.1c0-0.6,0-0.8,0.1-1.1l12.4-1.5v0.7c0,6.7,2.5,9,9.9,9h1.8 c7.4,0,9.9-2.3,9.9-9.1V10.8H10.8V0L46.6,0L46.6,0z"/>
<path data-typeface="Erbaum-Regular" d="M30.2,23.7v65.6c0,10.4-5.1,15.2-16,15.2H0v-9.6h10.3c5.7,0,8-2.2,8-7.5V33.3H5.6v-9.6H30.2z M14,6.6V5.3C14,1.1,16,0,22,0 h0.1c6,0,8,1.1,8,5.3v1.3c0,4.1-2,5.3-8,5.3H22C16,11.9,14,10.7,14,6.6z"/>
<path data-typeface="ExpoSerifPro-Semibold" d="M9.8,58.2V12.9c0-3.2,0-4.5-0.1-6.1C9.6,5.8,9,5.6,7,5.3L0.7,4.4V0c3.8,0.2,10.8,0.4,14.8,0.4S26.8,0.2,30,0v4.4l-5.8,0.9 c-2,0.4-2.4,0.5-2.5,1.5c-0.1,1.6-0.1,2.9-0.1,6.1V58c0,16.3-6.5,24.9-19.1,29.8L0,83.6C7.2,79,9.8,72.9,9.8,58.2z"/>
<path data-typeface="ExpoSerifPro-Semibold" d="M18.6,66c0,16.7-6.5,23.1-16.7,26.9L0,89.4c6.7-5,7.8-10,7.8-23V31.5c-1.5-0.6-5-1.4-6.9-1.6v-3.4c3.5-1.3,11.3-2.8,16.4-3 l1.3,1.2L18.6,66L18.6,66z M18.4,1.7l-2,11.5l-5,1.8L3.7,6.5V3.9c2.9-2,9.2-3.7,13.2-3.9L18.4,1.7z"/>
<path data-typeface="FatFrank-Heavy" d="M40.2,0c0.9,0,1.5,0.6,1.2,1.5v46.1c0,14.4-8.9,22.9-23.9,22.9c-6.4,0-13.1-2-16.7-5c-0.6-0.5-0.9-1.1-0.7-1.8L5,50 c0.3-0.9,1.2-0.9,1.9-0.4c1.9,1.5,4.4,2.5,7.5,2.5c3.8,0,6.3-2.6,6.7-6.6v-44c0-0.9,0.6-1.5,1.5-1.5H40.2z"/>
<path data-typeface="FatFrank-Heavy" d="M25.7,21.9c0.8,0,1.5,0.7,1.5,1.5v47.3c0,12.3-6.3,22.4-17,27.2c-0.8,0.4-1.4,0.3-1.9-0.5L0.2,84.7C-0.3,84,0,83.2,0.8,82.4 C4.4,79,6.6,74.8,6.6,71V23.4c0-0.8,0.7-1.5,1.5-1.5H25.7z M27.8,10.3c0,5.9-4.4,9.9-11,9.9s-11-4-11-9.9C5.8,4.1,10.2,0,16.8,0 S27.8,4.1,27.8,10.3z"/>
<path data-typeface="FertigoPro-Regular" d="M9,37.6c0-6-0.4-21.3-0.6-26.1c-0.5-9.7-1-10.6-1-10.6C9.1,0.4,11.3,0,12.9,0c4.5,0,7.9,2.3,7.9,6.2c0,6.7-0.3,24.9-0.3,33 c0,8.6-0.2,27-0.2,33.2C20.3,86.1,11.4,92,0.2,92L0,91.5C8.2,85.6,9,74.2,9,37.6z"/>
<path data-typeface="FertigoPro-Regular" d="M0.2,94L0,93.5c6.9-5.6,9-7.3,9-43.9c0-6-0.2-11.3-0.4-16.1c-0.5-9.7-2-10.6-2-10.6c1.7-0.5,3.3-0.9,4.9-0.9 c4.5,0,8.5,2.3,8.5,6.2c0,6.7-0.4,14.9-0.4,23c0,8.6,0.4,17,0.4,23.2C20,88.1,11.4,94,0.2,94z M7.4,6.8c0-3.7,3.1-6.8,6.7-6.8 c3.7,0,6.8,3.1,6.8,6.8c0,3.6-3.1,6.7-6.8,6.7C10.5,13.5,7.4,10.4,7.4,6.8z"/>
<path data-typeface="CarinaPro-Bold" d="M0,57c0-5.1,3.3-8.4,8.2-8.4c1.9,0,4.1,0.5,6.5,1.6l0.2,0.7c-1.4,3.5-3.2,8.8-3.2,12.9c0,3.4,1.3,6,5.3,6 c10,0,4.1-10.3,4.1-29.1V7c0-3.7-1.2-6-6.4-6H12V0h33.9v1h-2.3c-5,0-6,2.5-6,6v42.1c0,13.9-5.5,21.8-19.7,21.8C3.9,70.9,0,62.9,0,57 z"/>
<path data-typeface="CarinaPro-Bold" d="M0,86.8c0-4.8,3.5-7.5,8.2-7.5c1.7,0,3.6,0.4,5.5,1.1l0.2,0.7c-1.2,4.4-2.2,8.4-2.2,11.4c0,3.4,1.3,5.5,5.3,5.5 c10,0,3.1-10.3,3.1-29.2V35.1c0-8.6-1.1-10.5-5.9-10.5h-1.3v-1c17.5,0,20.8-0.1,23.2-4.8l0.6,0.2c-0.7,2.6-1.1,9.8-1.1,16.1v42.2 C35.6,91.2,28,99,16.4,99C6.7,99,0,93.3,0,86.8z M18.4,7c0-4.4,3.2-7,8.9-7s8.9,2.6,8.9,7c0,4.3-3.2,6.9-8.9,6.9S18.4,11.3,18.4,7z" />
<path data-typeface="CoconPro-Regular" d="M12.7,69.7C5.2,69.7,0,66,0,61.8v-6.3h0.5c2.2,1.3,6.2,2.2,10.3,2.2c6.2,0,8.5-2.7,8.5-8.2V0h4.6c6.1,0,9.2,3.2,9.2,9.3 v40.8C33.1,61.3,26.8,69.7,12.7,69.7z"/>
<path data-typeface="CoconPro-Regular" d="M8.7,91.2c-5.3,0-8.7-2.8-8.7-6.1v-4.9c1.9,0,5.5-0.3,6.5-0.4c3.8-0.3,7-2.6,7-7.8V20.9h3.8c6,0,9.6,3.2,9.6,9.3v43.1 C26.9,84.6,19.2,91.2,8.7,91.2z M20.5,15.7c-4.3,0-7.9-3.6-7.9-7.9S16.2,0,20.5,0s7.7,3.5,7.7,7.8C28.2,12.1,24.8,15.7,20.5,15.7z" />
<path data-typeface="EnzoOT-Medi" d="M0,81.4c6.3-4.5,8.1-9,8.1-17.2V0h7.7v63.9c0,10.5-3.6,18.3-11.4,22.8L0,81.4z"/>
<path data-typeface="EnzoOT-Medi" d="M0,81.4c6.2-4.4,7.5-7.3,7.5-16.7V19l7.4-1v46.4c0,12.2-2.9,17.3-10.8,22.1L0,81.4z M6.4,4.3c0-3,1.8-4.3,4.8-4.3 S16,1.3,16,4.3s-1.8,4.3-4.8,4.3S6.4,7.3,6.4,4.3z"/>
<path data-typeface="ErnestinePro-Light" d="M33.7,43.1V5.2l-9-1.2V0h22.9v4l-7.5,1.2v35.9c0,17.2-8.4,24.1-21,24.1C8.3,65.2,0,58.1,0,52c0-2.4,1.4-5.7,5-5.7 s4.7,2.8,4.7,4.7c0,1.7-1.1,3.3-2,3.7c0.7,1.5,3.5,4.7,11.6,4.7C28.2,59.4,33.7,54.7,33.7,43.1z"/>
<path data-typeface="ErnestinePro-Light" d="M15.5,30.5l-8-0.8v-4.2l14.1-1.1v35.7c0,4.9,0.8,8.1,1.7,11c0.9,3,2,5.8,2,9.4c0,5.1-3.4,12.8-12.9,12.8 c-6.2,0-12.4-3.9-12.4-9c0-2.8,1.7-5.2,4.6-5.2c2.2,0,3.9,1.7,3.9,4c0,1.8-1.3,2.8-1.8,3.1c0.1,0.6,2,2.2,5.6,2.2 c5.5,0,7.3-4.1,7.3-8c0-3.6-0.8-5.9-1.7-8.2c-1.4-3.8-2.4-8.1-2.4-13.1L15.5,30.5L15.5,30.5z M18.5,0c3.4,0,5.8,2.7,5.8,5.9 c0,3.1-2.4,5.7-5.8,5.7S12.7,9,12.7,5.9C12.7,2.7,15.1,0,18.5,0z"/>
<path data-typeface="MetaPro-Book" d="M15.9,74.5c-2.6,3.8-6.8,6.8-11.4,8.5L0,77.7c3.5-1.8,6.5-4.7,7.9-7.4c1.2-2.4,1.7-5.5,1.7-12.9V0h9.7v56.7 C19.3,66.6,18.5,70.6,15.9,74.5z"/>
<path data-typeface="MetaPro-Book" d="M12.9,86.5c-2.1,2.7-5,5.2-8.8,6.9L0,87.8c1-0.6,2.2-1.5,3.2-2.4c2.7-2.5,3.9-7.3,3.9-13.8V23.5l9.5-2v50.2 C16.6,80,14.7,84.1,12.9,86.5z M11.6,13.3c-3.7,0-6.5-2.9-6.5-6.6S8,0,11.6,0s6.6,3,6.6,6.5C18.2,10.3,15.2,13.3,11.6,13.3z"/>
<path data-typeface="SpinozaPro" d="M25.5,2L18,4v48.4c0,3.9-1.1,8-2.4,10.9L2.3,79.4L0,77.6c6.9-10.4,9-16.4,9-26.3V4L0.6,2V0h24.9L25.5,2L25.5,2z"/>
<path data-typeface="SpinozaPro" d="M2.4,84.8L0,83.3c6.5-8.9,9-14,9-22.4V29.1l-6.2-2.6v-2.2l14.1-4.4v42c0,3.4-1,6.9-2.1,9.3L2.4,84.8z M12.7,9.7 c-1.4,0-2.8-0.3-4-1c-0.7-1.2-1-2.5-1-3.8S8,2.2,8.7,1c1.2-0.7,2.6-1,4-1s2.9,0.3,4.1,1c0.7,1.2,1,2.6,1,3.9s-0.3,2.6-1,3.8 C15.6,9.4,14.1,9.7,12.7,9.7z"/>
<path data-typeface="TisaPro-Bold" d="M31.2,46.7c0,19.8-8.9,34.4-26.5,42.5c-1.8-1.8-4-5.6-4.7-8.1c11.6-6.7,15.8-18,15.8-31.8V10.4c-2.7-0.2-6.4-0.7-8.5-1.2 C6.9,6.3,6.7,3.2,7.2,0h31.5C38.9,0.8,39,2.2,39,3.7c0,2.1-0.2,4.3-0.5,5.5c-1.7,0.5-5.3,1-7.3,1.1L31.2,46.7L31.2,46.7z"/>
<path data-typeface="TisaPro-Bold" d="M2.7,38c0.1-2.8,1.2-7.1,2.4-9.2c2.6-1.2,7.1-2,11.4-2c2.6,0,6.2,0.4,7.9,1.1v38.3c0,15.6-8.1,26.4-16.1,34.9 c-2.9-1-6.6-4.1-8.3-6.5c5-5.9,9.9-14,9.9-26.2V38L2.7,38L2.7,38z M26.1,8.6c0,5.9-3.6,9.2-8.7,9.2c-5.8,0-8.9-3.2-8.9-9.2 c0-5.2,3.7-8.6,8.9-8.6C22.5,0,26.1,3.1,26.1,8.6z"/>
<path data-typeface="TisaSansPro-Light" d="M21.7,55c0,17.6-6.4,27.6-19.1,33.6c-1.4-1-2.4-2.7-2.6-4.9c11.3-5.8,15.6-14,15.6-27.6V0.5c0.5-0.3,1.6-0.5,3-0.5 c1.5,0,2.6,0.2,3.1,0.5V55z"/>
<path data-typeface="TisaSansPro-Light" d="M17.2,63.6c0,15.3-6.2,23-13.9,29.3c-1.8-0.7-3-2.3-3.3-4.1c6.4-5.2,11.4-11.6,11.4-24.1V22.1c0.5-0.3,1.5-0.5,2.9-0.5 s2.4,0.2,2.9,0.5V63.6z M18.7,4.3c0,2.9-1.6,4.4-4.3,4.4c-2.8,0-4.4-1.4-4.4-4.3C10,1.6,11.7,0,14.4,0C16.9,0,18.7,1.5,18.7,4.3z"/>
<path data-typeface="FiraCode-Medium" d="M46,46.5c0,4.8-0.9,9.1-2.7,12.9c-1.8,3.8-4.6,6.9-8.5,9.2s-8.7,3.5-14.6,3.5C12.7,72.1,6,69.9,0,65.6L4.9,58 c2.7,1.7,5.2,3,7.6,3.7s4.8,1.1,7.3,1.1c4.5,0,8-1.4,10.6-4.3s3.8-6.9,3.8-12.2V9.1H12.9V0H46L46,46.5L46,46.5z"/>
<path data-typeface="FiraCode-Medium" d="M37.8,69.3c0,6.6-1.4,12.1-4.1,16.6c-2.8,4.5-6.8,8-12,10.7s-11.9,4.7-19.9,6.2L0,94c5.7-1.1,10.5-2.6,14.4-4.4 c3.8-1.8,6.8-4.3,8.9-7.5s3.1-7.2,3.1-12V35H5v-8.4h32.9L37.8,69.3L37.8,69.3z M34.2,2.1c1.4,1.4,2.1,3.1,2.1,5.1 c0,2.1-0.7,3.8-2.1,5.2c-1.4,1.4-3.2,2.1-5.4,2.1c-2.2,0-4-0.7-5.4-2.1s-2.1-3.1-2.1-5.2s0.7-3.8,2.1-5.1C24.8,0.7,26.6,0,28.8,0 S32.8,0.7,34.2,2.1z"/>
<path data-typeface="FiraSans-Medium" d="M23.8,59c0,16.1-8.9,21.9-20.3,25.6L0,75.1c9-3.5,10.5-7.9,10.5-16.6V0h13.3V59z"/>
<path data-typeface="FiraSans-Medium" d="M23.4,75c0,16.2-7.4,21.6-19.3,26.4L0,92.1c6.9-3.2,10.6-5.9,10.6-16.3v-49h12.8V75z M25.1,7.8c0,4.3-3.3,7.7-8.1,7.7 c-4.7,0-8-3.4-8-7.7C9,3.4,12.3,0,17,0C21.8,0,25.1,3.4,25.1,7.8z"/>
<path data-typeface="FreightMicroProLight-Regular" d="M37.4,4.7h-8.1l-0.2,0.4v40.3c0,11.7-5.3,18.6-16.6,18.6C3.4,64,0,60.6,0,57.8c0-2.1,1-3,3.3-3c2.7,0,4.8,1.2,6.2,2.7 c0.7,0.7,1.2,1.3,1.6,2c0.3,0.2,1,0.4,1.6,0.4c7.6,0,11.1-4.4,11.1-14.1V5.9l-0.2-0.4L12.1,3.3V0h25.3V4.7z"/>
<path data-typeface="FreightMicroProLight-Regular" d="M10.1,86.1c4.6-0.3,6.2-4.3,6.2-11V28.7l-0.2-0.4L8.6,27v-2.9L21,20.4v54.3c0,8.8-2.2,15.5-12.5,15.5 c-8.1,0-8.5-3.3-8.5-5.6C0,82,1.2,81,3.8,81c3.5,0,4.4,2.1,5.3,5.1H10.1z M19,10.7c-3.8,0-4.9-1.7-4.9-5.5C14.1,1.6,15.2,0,19,0 c3.7,0,4.6,1.6,4.6,5.2C23.6,9,22.7,10.7,19,10.7z"/>
<path data-typeface="FreightTextCmpProBlack-Regular" d="M19.1,6.9c0-1-0.6-1.7-3.4-2l-3.5-0.5L11.9,0h29.3l-0.3,4.4l-2.4,0.3c-2.8,0.3-3.4,1-3.4,2v25.5c0,24.2-8.5,31.7-22.1,31.7 c-7.3,0-13-3.9-13-9.7c0-4.1,2.9-6.8,6.6-6.8c5.5,0,8.7,4.7,9.6,11.3c2.6-3.9,2.9-10.5,2.9-16.9L19.1,6.9L19.1,6.9z"/>
<path data-typeface="FreightTextCmpProBlack-Regular" d="M16.2,37.4c0-2.4-0.5-3.9-2.1-4.5L11,31.6l0.3-3.6l19.5-5.7v45.2c-1.2,18.2-10.6,27-21.3,27c-6,0-9.5-3.2-9.5-7.8 c0-3.6,3-6.1,6-6.1c4.2,0,6.6,3.3,7.9,7.2c1.5-1.1,2.3-4.6,2.3-13.9L16.2,37.4L16.2,37.4z M14.3,8.6C14.3,3.9,18,0,22.8,0 s8.5,3.9,8.5,8.7c0,4.7-3.7,8.6-8.5,8.6S14.3,13.4,14.3,8.6z"/>
<path data-typeface="FuturaPT-Book" d="M26.6,0v48c0,5.4-0.1,11.5-4.1,15.7c-2.3,2.5-5.7,4.2-10.6,4.2C7.1,67.9,3,66.4,0,63l4.1-5.8c2.2,2.4,5.1,3.7,7.6,3.7 c2,0,3.8-0.7,5-1.9c2.5-2.5,2.5-6.7,2.5-10.8V0H26.6z"/>
<path data-typeface="FuturaPT-Book" d="M5.1,0c2.8,0,5.1,2.3,5.1,5.1c0,2.8-2.3,5.1-5.1,5.1S0,7.9,0,5.1C0,2.3,2.3,0,5.1,0z M8.7,20.8v64.5H1.5V20.8H8.7z"/>
<path data-typeface="GaramondPremrPro-Smbd" d="M3.1,75.5C3.5,75,5.5,74,6,74c0.4,0,1.8,0.3,3.1,1.1c2.4,1.7,4.8,2.9,6.3,2.9c1.2,0,2-0.3,2.7-1.2c1.4-1.7,1.8-4.5,2-6.5 c0.4-5.7,0.3-18.7,0.3-33.1c0-14.3-0.3-24.3-0.5-28.5c-0.1-1.9-1.1-4.1-5.6-5.1c-2.2-0.5-3.2-1.4-3.2-2.2c0-0.7,0.8-1.4,3.1-1.4 c3.1,0,7.1,0.4,11.4,0.4c5.5,0,9.1-0.4,12.2-0.4c1.5,0,2.8,0.5,2.8,1.3c0,0.7-0.6,1.6-3,2.2c-3.4,0.8-4.7,2.1-4.8,7 c-0.1,8.2-0.5,34.5-0.7,43c-0.4,12-6.1,21.7-12.6,26.4C14.6,83.4,9.9,85,7.2,85C4.1,85,0,83.3,0,80.5C0,79.4,2,76.6,3.1,75.5z"/>
<path data-typeface="GaramondPremrPro-Smbd" d="M7.9,25.1c2.7-0.7,8.9-2.3,11.8-3.9c0.7-0.4,1.4-0.6,1.8-0.6s1.1,0.9,1.1,1.3c-0.1,5.2-0.3,32.3-0.4,34.9 c-0.2,6.9-1.6,12.7-4.2,17c-2.4,4.1-5.5,7.9-8.8,10.5c-2.6,2.3-6,4-6.7,4c-0.5,0-1.9-0.5-2.4-1.2c-0.2-0.2-0.2-0.9,0.3-1.2 C5,83,6,81.8,6.6,81.1c2.8-3.4,4.9-11.3,4.9-24.3c0-4.9-0.1-20.8-0.3-24c-0.1-1.4-0.4-2.5-3.9-4.8c-0.3-0.2-1.1-1-1.1-1.7 C6.2,25.9,6.8,25.4,7.9,25.1z M22.3,6.1c0,4.5-4,6.1-6.2,6.1c-2,0-5.7-2.4-5.8-6c-0.1-1.9,0.9-3.8,2.3-5c0.8-0.8,1.6-1.2,3-1.2 C20.8,0,22.3,4.5,22.3,6.1z"/>
<path data-typeface="Gastromond-Regular" d="M13.9,95.8C5,95.8,0,92.1,0,85.7c0-4.3,2.9-8.5,8.3-8.5c9.6,0,12,12.1,16.8,12.1c3.5,0,5.9-4.7,5.9-25.2V6.4 c0-1-0.2-1.2-1.2-1.4l-4.4-0.7c-0.6-0.1-0.8-0.4-0.8-2.2S24.8,0,25.4,0c2.3,0,10.2,0.7,18.5,0.7S60.2,0,62.5,0 c0.6,0,0.8,0.3,0.8,2.1s-0.2,2.1-0.8,2.2L58.1,5c-1,0.2-1.2,0.4-1.2,1.4v22.3c0,8,0.2,15.7,0.2,25.7C57.1,75.7,38.5,95.8,13.9,95.8z "/>
<path data-typeface="Gastromond-Regular" d="M0,99.3c0-0.4,0-0.6,0.4-1c4.6-5.1,6-8.6,6-20.8V47.3c0-1-0.2-1.1-1.2-1.3l-3.4-0.6C1.2,45.3,1,45.1,1,43.5 c0-1.5,0.2-1.7,0.8-1.9c8.2-3.2,17.1-8.5,25.1-13.8c0.3-0.2,0.5-0.3,0.8-0.3c0.7,0,2.6,0.8,2.6,1.5c0,1.7-0.8,8.5-0.8,20.8v4.9 c0,7.2,0.6,15.1,0.6,21.4C30.1,90.8,18.6,102,2,102C1.4,102,0,100,0,99.3z M7.8,11.5C7.8,5,12.6,0,19.3,0s11.5,5,11.5,11.5 S26,23,19.3,23C12.6,23,7.8,18,7.8,11.5z"/>
<path data-typeface="Georgia" d="M48.6,3.8c-0.9,0-2,0.2-3.4,0.4c-1.4,0.2-2.5,0.5-3.4,0.8c-1.1,0.4-1.9,1-2.2,2C39.2,7.9,39,8.9,39,10v41 c0,2.1-0.4,4.4-1.3,6.8c-0.9,2.4-2.1,4.6-3.8,6.4c-1.9,2.2-4.2,3.9-6.9,5.2s-5.7,1.9-9.1,1.9c-5.3,0-9.6-1.5-12.9-4.5s-5-7-5-12 c0-2.2,0.6-4.2,1.7-5.9c1.1-1.7,2.8-2.6,5-2.6c2,0,3.5,0.5,4.7,1.6s1.8,2.5,1.8,4.3c0,1-0.2,2.1-0.6,3.1c-0.4,1-0.9,2-1.4,2.8 c-0.5,0.7-1,1.6-1.7,2.6c-0.6,1-1.1,1.9-1.3,2.7c0.7,1.1,1.8,2,3.2,2.8s3.4,1.2,5.8,1.2c2.4,0,4.3-0.5,5.8-1.6s2.6-2.5,3.4-4.4 c0.7-1.7,1.2-3.8,1.5-6.3s0.5-5.2,0.5-8.3V10.1c0-1.1-0.2-2.1-0.6-2.9c-0.4-0.8-1.1-1.4-2.3-2c-1-0.5-2.3-0.9-3.8-1.2 c-1.5-0.3-2.8-0.4-3.7-0.5V0h30.6V3.8z"/>
<path data-typeface="Georgia" d="M28.5,71c0,3.6-0.5,6.9-1.6,10.1c-1,3.1-2.4,5.7-4.2,7.8c-1.9,2.2-3.9,3.8-6.3,5c-2.3,1.2-4.9,1.7-7.7,1.7 c-2.9,0-5.1-0.6-6.5-1.7C0.7,92.7,0,91.4,0,89.8c0-1.4,0.4-2.6,1.2-3.7s1.9-1.6,3.4-1.6c1,0,1.9,0.2,2.7,0.6s1.5,1,2.1,1.7 c0.5,0.6,1,1.3,1.6,2.2c0.5,0.9,1,1.7,1.5,2.5c2.5,0,4.2-1.5,5.3-4.5s1.6-7.8,1.6-14.4V36.4c0-1-0.3-2-0.8-3s-1.2-1.7-2-2.3 c-0.5-0.4-1.8-0.7-3.7-1.1c-2-0.4-3.5-0.6-4.5-0.7v-3l19.3-1.1l0.7,0.7L28.5,71L28.5,71z M29.2,6.2c0,1.9-0.6,3.5-1.8,4.9 s-2.7,2.1-4.5,2.1c-1.7,0-3.1-0.7-4.3-2s-1.8-2.8-1.8-4.5c0-1.8,0.6-3.4,1.8-4.7c1.2-1.3,2.7-2,4.3-2c1.9,0,3.4,0.6,4.6,1.9 C28.6,3.1,29.2,4.5,29.2,6.2z"/>
<path data-typeface="GillSansNova-Heavy" d="M33.3,0v60.5c0,15.2-2.5,29.6-22.9,29.6c-3.1,0-4.6-0.2-7.3-0.7L0,72.9c11.9,0,12.9-1.9,12.9-14.5V0H33.3z"/>
<path data-typeface="GillSansNova-Heavy" d="M25,19v53.1c0,12.6-8.4,20.4-19.1,20.7L0,79.3c5.5-1.8,7.4-4.3,7.4-10.9V19L25,19L25,19z M23.6,7.5c0,4.1-3.3,7.4-7.4,7.4 s-7.4-3.3-7.4-7.4S12,0,16.2,0S23.6,3.4,23.6,7.5z"/>
<path data-typeface="GimletText-Regular" d="M0.2,41.4h9.6c-1.9,21.5,5.5,26,13.1,26c7.3,0,11.2-3.7,11.2-16.5V4.5L16.7,4.8V0h39v4.8L44.4,4.5v47.9 c0,14.6-9.6,19.8-21.8,19.8C8.3,72.2-1.7,64.9,0.2,41.4z"/>
<path data-typeface="GimletText-Regular" d="M0,91.7l15.8-9.9V27.3L5.2,27.5v-4.6h20.1v58.4L2.9,96.2L0,91.7z M14.1,6.8C14.1,2.1,16,0,20.5,0c4.4,0,6.1,2.1,6.1,6.8 c0,4.6-1.7,6.7-6.1,6.7C16,13.5,14.1,11.4,14.1,6.8z"/>
<path data-typeface="GitanLatn-Rg" d="M15.5,71.2c-5.1,0-11.3-1.6-15.5-4.1l3.5-9.4c0.4-0.1,1.9-0.1,2.3,0l11,5.6c5.8-0.5,10.1-5.5,10.1-12.8V32.9 c0-13-0.4-26.1-1-32.9h11c-0.6,6.9-1,20.1-1,32.8v14.7c0,8.4-2.7,14.7-7.9,18.3C23.8,68.7,16.5,71.2,15.5,71.2z"/>
<path data-typeface="GitanLatn-Rg" d="M6.2,97.9L0,90.8c0-0.3,0.5-1.3,0.8-1.5l11-8.7c0.2-5.9,0.4-13.5,0.4-19.1V46.7c0-11.2-0.6-18.8-1.6-20.9 c-0.1-0.3-0.1-3.3,0-3.6L21.8,21C21.3,27.2,21,38.2,21,47.9V71C21,81.6,16.3,90.1,6.2,97.9z M15.9,12.2c-3.7,0-6.2-2.4-6.2-5.9 c0-2,0.7-3.5,1.9-4.5c1.8-1.4,4-1.8,4.5-1.8c3.7,0,6.2,2.4,6.2,5.9c0,2-0.7,3.5-1.9,4.5C18.6,11.8,16.4,12.2,15.9,12.2z"/>
<path data-typeface="Gotham-Bold" d="M22.9,71C12,71,4.8,66.2,0,60.5l9.7-10.8c4,4.4,7.9,7,12.8,7c5.8,0,9.4-3.5,9.4-11.6V0h15.8v45.8C47.7,62.8,37.7,71,22.9,71 z"/>
<path data-typeface="Gotham-Bold" d="M6.6,89.3c-2.8,0-4.5-0.2-6.6-0.6V76.8c1.2,0.2,2.1,0.3,3.2,0.3c3.2,0,5.4-1.7,5.4-6.2V19.4h15.2v52.7 C23.8,83.9,17.8,89.3,6.6,89.3z M8.2,13.5V0h16v13.5H8.2z"/>
<path data-typeface="Grad-Bold" d="M11.3,40.4c5.1,0,9,3.6,9,9.3c0,4.7-3.8,8.8-7.6,8.8c-1.6,0-2.2-0.3-3.2-0.3c-1.6,0-2.5,1.3-2.5,2.9c0,1.8,2.9,7.8,11.7,7.8 c8,0,14.4-5.9,14.4-18.4V8.4c0-1.6-0.7-3.3-3.1-3.4l-9.2-0.3V0h34.8v4.7l-7.7,0.4v45.4C47.9,64.4,37.4,74,21.5,74 C8.1,74,0,64.7,0,54.3C0,45.6,5.1,40.4,11.3,40.4z"/>
<path data-typeface="Grad-Bold" d="M5.9,79.8c4.9,0,5.3,5,7.5,5c1.7,0,2.1-3.2,2.1-16.1v-30c0-3.2-1.1-4.6-5.4-4.6H6.3V30c5.6-0.1,12.9-2.4,16.8-4.9h5.2v39.1 c0,15.2-12.1,29-21.4,29C3,93.2,0,90.1,0,86.1C0,82.9,2.7,79.8,5.9,79.8z M21.1,0C25.5,0,29,3.6,29,8.2c0,5.1-3.5,8.2-7.9,8.2 s-7.8-3.6-7.8-8.2S16.7,0,21.1,0z"/>
<path data-typeface="HaboroContrast-ExtDem" d="M0,88.6C13.2,86,17,82.4,17,55V0h15.4v54.8c0,26-13.9,33.6-32,36.4L0,88.6z"/>
<path data-typeface="HaboroContrast-ExtDem" d="M0,90.6c12.4-3,15.1-8.8,15.1-28.5V23.2h14.4v37.2c0,20-11.2,29.7-28.9,32.6L0,90.6z M22.4,0c5,0,8.5,2.9,8.5,7.8 c0,4.7-3.5,7.6-8.5,7.6c-4.9,0-8.4-2.9-8.4-7.6C14,2.9,17.5,0,22.4,0z"/>
<path data-typeface="Haettenschweiler" d="M0,41.9h13.6v17.3c0,1.1,0.7,1.7,2.1,1.7c1.4,0,2.1-0.6,2.1-1.7V0h15.4v58.1c0,8.4-5.8,12.6-17.4,12.6c-4.1,0-7.8-1-11-3 S0,63,0,59.7L0,41.9L0,41.9z"/>
<path data-typeface="Haettenschweiler" d="M0,82v-8.2c3.6,0,5.9-0.2,6.6-0.5c0.8-0.4,1.2-1.5,1.2-3.4V13.3h13.9v58c0,7.1-3.8,10.7-11.3,10.7H0z M21.7,10.2H7.8V0h13.9 V10.2z"/>
<path data-typeface="Harrington" d="M25.6,1.3c-0.1,0.1-0.7,0.6-2,1.6c-1,0.8-1.5,1.5-1.5,2.1v40.7c0,3,0.3,5.3,0.9,6.8c0.3,0.8,0.8,1.6,1.5,2.1 c0.2,0.1,0.3,0.2,0.3,0.4c0,0.2-0.2,0.3-0.5,0.4s-0.8,0.5-1.3,1c-0.8,1-1.8,2.5-2.8,4.6c-1.8,3.6-3.6,7.3-5.4,10.9 c-2.7,4.4-5.8,6.5-9.2,6.5c-1.7,0-3.1-0.4-4.1-1.1c-1-0.7-1.5-1.6-1.5-2.7c0-1,0.3-1.8,0.9-2.4c0.6-0.7,1.4-1,2.3-1 c1,0,1.8,0.3,2.3,0.9C6,72.6,6.2,73,6.2,73.6c0,0.7,0,1.3,0.1,1.6s0.3,0.5,0.8,0.5c1.4,0,3-2.1,4.9-6.4c2.2-4.9,3.3-10,3.3-15.4V4.8 c0-0.6-0.5-1.3-1.5-2.1c-0.7-0.6-1.4-1.1-2.1-1.7c-0.1-0.1-0.1-0.3-0.1-0.6c0-0.3,0.3-0.4,0.8-0.4c0.3,0,1.3,0,2.9,0.1 c1.6,0.1,2.8,0.2,3.4,0.2c1.3,0,2.6,0,4-0.1s2.1-0.1,2.3-0.1c0.6,0,0.9,0.2,0.9,0.5C25.8,0.9,25.8,1.1,25.6,1.3z"/>
<path data-typeface="Harrington" d="M16.5,70.4c0.2,0.2,0.2,0.4-0.1,0.7c-0.2,0.2-0.5,0.4-0.8,0.8c-0.3,0.3-0.6,0.7-0.9,1.2c-1.7,2.9-3.3,5.8-5,8.7 c-2,3.1-4.1,4.6-6.2,4.6c-1,0-1.8-0.3-2.5-0.9c-0.7-0.6-1-1.3-1-2.3c0-0.7,0.2-1.2,0.6-1.7c0.4-0.5,1-0.7,1.6-0.7 c0.8,0,1.4,0.3,1.7,0.8s0.4,0.9,0.3,1.3c0,0.1,0,0.3,0,0.5c0,0.3,0.1,0.5,0.3,0.5c0.1,0,0.2,0,0.5-0.1c0.9-0.3,1.6-1.2,2.3-2.7 c0.9-2,1.3-4.8,1.3-8.3V27.3c0-1.6-0.4-2.7-1.2-3.3c-1-0.4-1.7-0.6-2.1-0.7c-0.4-0.1-0.6-0.3-0.6-0.6c0-0.2,0.2-0.4,0.5-0.6 s0.8-0.5,1.6-0.9c1.1-0.6,2-1.1,2.6-1.5c1.5-0.9,2.7-1.7,3.6-2.4c0.9-0.6,1.4-1,1.6-1.2c0.2-0.2,0.4-0.2,0.5-0.2 c0.5,0,0.6,0.3,0.4,0.9c-0.2,0.7-0.3,1.9-0.5,3.6s-0.2,3.6-0.2,5.9v38.8c0,1.5,0.1,2.6,0.4,3.5C15.5,69.2,15.9,69.8,16.5,70.4z  M16.6,4.4c0,1.1-0.4,2.1-1.3,2.9c-0.9,0.8-1.9,1.2-3.1,1.2c-1.2,0-2.2-0.4-3-1.3S8,5.3,8,4.2s0.4-2.2,1.3-3C10.2,0.4,11.2,0,12.4,0 c1.2,0,2.2,0.4,3,1.3S16.6,3.2,16.6,4.4z"/>
<path data-typeface="HendersonSlabBasicSemiBold" d="M11.1,41c1.1,9.8,6.8,19,21.5,19s19.8-6.8,19.8-19V11.7h-8.6V0h28.4v11.7h-8v32c0,16.8-10.5,28.1-31.6,28.1 C12.2,71.8,2.4,60.9,0,44.5L11.1,41z"/>
<path data-typeface="HendersonSlabBasicSemiBold" d="M25.3,72.7c0,17.6-8.2,25.8-25.3,25.9V87c9.4-0.1,13.5-5.3,13.5-17.7V35.9H5.7V24.2h19.7L25.3,72.7z M11.2,8.1 c0-5,3.3-8.1,7.9-8.1c4.8,0,8.1,3.3,8.1,7.9c0,5-3.3,8.1-8,8.1C14.6,16.1,11.2,12.7,11.2,8.1z"/>
<path data-typeface="CarlMarx-Regular" d="M0,55.8v-0.3C0,52.4,1.7,51,3.7,51c2.4,0,3.7,1.6,3.7,4.2v0.1c0,5.3,2.1,8.7,6.4,8.7s6.3-3.9,6.3-10.5V3.8 c0-2.1,1.7-3.8,3.8-3.8s3.8,1.7,3.8,3.8v51c0,10.1-5.2,16.4-13.9,16.4S0,65.4,0,55.8z"/>
<path data-typeface="CarlMarx-Regular" d="M0,85.1c0-2.1,1.6-3.7,3.8-3.7h3.5c2.9,0,4.5-1.6,4.5-4.5V19.3c0-2,1.7-3.7,3.7-3.7s3.7,1.7,3.7,3.7v58 c0,7.4-4.1,11.5-11.5,11.5H3.8C1.6,88.8,0,87.2,0,85.1z M11.2,4.3c0-2.4,1.9-4.3,4.3-4.3c2.4,0,4.3,1.9,4.3,4.3s-1.9,4.3-4.3,4.3 C13.1,8.6,11.2,6.7,11.2,4.3z"/>
<path data-typeface="Joschmi" d="M0,52.3V36.7h14.8V67C6.6,67,0,60.4,0,52.3z M20.2,0H35v52.1C35,60.3,28.3,67,20.2,67V0z"/>
<path data-typeface="Joschmi" d="M0,8c0-4.3,3.8-8,8.1-8c4.5,0,8.1,3.7,8.1,8c0,4.5-3.6,8.2-8.1,8.2C3.8,16.2,0,12.5,0,8z M0.6,22.5h14.8v60.1 c0,8.2-6.7,14.9-14.8,14.9L0.6,22.5L0.6,22.5z"/>
<path data-typeface="Reross-Quadratic" d="M0,52.4V52h11.7v0.6c0,6.5,3.8,10.8,9.8,10.8c5.9,0,9.8-4.3,9.7-10.8V0h11.7v52.4c0,13.8-9,21.4-21.4,21.4 C9,73.8,0,66.2,0,52.4z"/>
<path data-typeface="Reross-Quadratic" d="M0,84.2h1c3,0,5.2-2,5.2-5.2V32.2h11.2V79c0,9.2-6.6,15.6-15.6,15.6H0L0,84.2L0,84.2z M5,6.8C5,3,8.2,0,12,0s6.8,3,6.8,6.8 s-3,7-6.8,7C8.2,13.8,5,10.6,5,6.8z"/>
<path data-typeface="Xants" d="M0,63c0-3.3,2.7-6,6-6s6,2.7,6,6c0,3.4-2.7,6.1-6,6.1S0,66.4,0,63z M7.3,71.8L8,70.4c2.4,1.4,5.3,2.3,8.3,2.3 c4.1,0,7-2.4,7-7.9V1.6h-6.5V0h23.7v1.6H35v53.2c0,13.8-6.3,19.5-18.4,19.5C13.2,74.3,10,73.4,7.3,71.8z"/>
<path data-typeface="Xants" d="M0,88.7c0-3.4,2.7-6.1,6-6.1s5.8,2.7,5.8,6.1c0,3.3-2.5,6-5.8,6S0,92,0,88.7z M5.5,98l1-1.3c1.9,1.9,5.8,3.6,9.1,3.6 c4.7,0,6-2.8,6-6.3V27.5h-5.5v-1.6h16v60.6c0,11.5-7.1,15.4-15.7,15.4C12.1,101.9,8.4,100.4,5.5,98z M21.7,6c0-3.3,2.6-6,5.9-6 s5.9,2.7,5.9,6s-2.6,6-5.9,6S21.7,9.3,21.7,6z"/>
<path data-typeface="HWTSlabColumbian" d="M19,15.5V0h40.2v15.5h-6.4c-2,0-3.2,1.3-3.2,3v28.9c0,14.5-9.5,23-24.5,23C12.2,70.4,0,61.5,0,48.2c0-5.8,2.9-11.5,9.8-11.5 c5.7,0,10,3.8,10,9.5c0,2.9-0.8,3.2-0.8,4.7c0,1.7,1.9,3.2,4.2,3.2c3.8,0,5.4-3.3,5.4-7v-29c0-1.5-1.4-2.6-3.2-2.6L19,15.5L19,15.5z "/>
<path data-typeface="HWTSlabColumbian" d="M28.1,72.5c0,11.4-6.3,14-14.6,14C6.5,86.5,0,85,0,77c0-3.8,2.3-6.4,6-6.4c4.8,0,5.5,3,6.8,3c0.9,0,1.2-0.8,1.2-1.5 c0-1.2-0.9-2.6-1.8-2.8V30.8c0-1.3-0.9-2.5-2.4-2.5H5.4v-12h22.7L28.1,72.5L28.1,72.5z M20.1,0c3.9,0,7,3.1,7,7s-3.1,7-7,7 s-7-3.1-7-7S16.2,0,20.1,0z"/>
<path data-typeface="HypatiaSansPro-Light" d="M23.2,68.4c0,11.7-7,17.7-15.7,17.7c-2.9,0-5.2-0.9-7.5-1.3v-6.4c1.9,2.4,4.8,3.2,7.3,3.2c5.9,0,10.7-5.1,10.7-13V17.9 C18,11.1,17.8,3,17.6,0h5.9c-0.2,3-0.3,11.1-0.3,17.9V68.4z"/>
<path data-typeface="HypatiaSansPro-Light" d="M0,81.3c0.9,0.8,2.7,1.5,4.9,1.5c5.6,0,9.4-4.8,9.4-13.8V20.1H9.7c1-1,1.9-2.3,2.7-3.4h7.2c-0.2,2.5-0.3,7.2-0.3,10.4v42 C19.3,80,15.1,87,5.9,87c-3.1,0-5.1-0.7-5.9-0.7L0,81.3L0,81.3z M16.5,0c1.9,0,3.3,1.4,3.3,3.3c0,1.8-1.4,3.2-3.3,3.2 c-1.8,0-3.2-1.4-3.2-3.2C13.3,1.4,14.7,0,16.5,0z"/>
<path data-typeface="Interstate-UltraBlack" d="M66.9,39.1c0,22.1-10.4,32-34.7,32c-20.5,0-29-8.5-32.2-28.4l26.4-6.6c2.1,10.8,3.8,12.8,7.1,12.8c3.4,0,4.6-2.5,4.6-8V0 h28.8L66.9,39.1L66.9,39.1z"/>
<path data-typeface="Interstate-UltraBlack" d="M36.7,68.1c0,20-10.9,25.5-29.5,26.7L0,79.2c9-0.9,10.7-3.6,10.7-10V23h26V68.1z M37.8,9.7c0,6.9-5.6,10.1-14.1,10.1 S9.6,16.6,9.6,9.7C9.6,3.6,15.2,0,23.7,0S37.8,3.6,37.8,9.7z"/>
<path data-typeface="InterstateMono-Light" d="M0,54.2l7.3-2.5c2.6,7.8,6.5,12.4,14.5,12.4c10.6,0,15-6.2,15-20.4V0h7.7v44c0,18.1-7.6,27.1-23,27.1 C9.9,71.1,3.6,65,0,54.2z"/>
<path data-typeface="InterstateMono-Light" d="M0,86.6c11.3-3.2,12.3-5.3,12.3-15.2V20.7h7.5v51.1c0,11.5-1,17.2-16.5,20.6L0,86.6z M10.4,5.4c0-3.1,2.4-5.4,5.5-5.4 s5.5,2.3,5.5,5.4c0,2.9-2.4,5.4-5.5,5.4S10.4,8.3,10.4,5.4z"/>
<path data-typeface="Iskra-Regular" d="M8.8,76.1c-4.7,0-8.8-1.8-8.8-6.2v-3.2c1.6,0.6,3.9,1,5.9,1c5.4,0,8.8-3.4,8.8-9V4.8c0-4.8,1.5-4.8,9-4.8v60.2 C23.7,71,16,76.1,8.8,76.1z"/>
<path data-typeface="Iskra-Regular" d="M18,76.4c0,7-4.6,11.7-11.1,11.7c-3,0-6.9-1.1-6.9-5v-3.6C1.2,79.9,2.4,80,3.7,80c3.6,0,5.8-2.6,5.8-6.1v-47 c0-4.8,1.1-4.8,8.5-4.8V76.4z M14.2,12c-4.4,0-6-2-6-6c0-3.8,1.6-6,6-6c4.1,0,5.9,2.2,5.9,6C20.1,10,18.3,12,14.2,12z"/>
<path data-typeface="ITCAvantGardePro-Md" d="M30,0h10.8v53.7c0,13.6-8.4,21.7-20.4,21.7C10.4,75.4,2,68.9,0,59.2h11.1c1.7,4.5,4.7,6.3,9.4,6.3c6.1,0,9.5-4.7,9.5-11.5V0 z"/>
<path data-typeface="ITCAvantGardePro-Md" d="M0,84.9c4.1-0.4,6.9-1.6,6.9-10.1V18.6h10.4v59c0,12-10.5,18.2-17.3,18.2V84.9z M6.9,12.2V0h10.4v12.2H6.9z"/>
<path data-typeface="JubilatLight" d="M0,64.2v-4.4c2.7,1.8,7.2,3.6,11.9,3.6c8.2,0,11.8-4.1,11.8-13.8v-44c0-1.6-0.4-1.9-1.2-1.9h-8.2V0h22.8v3.7H30 c-0.6,0-1.2,0.8-1.2,1.9v44.1c0,12.2-5.3,17.8-16.5,17.8C6.7,67.5,2.5,65.7,0,64.2z"/>
<path data-typeface="JubilatLight" d="M0,79.9L1.9,80c6.4,0,8-2.1,8-11.3V26c0-3.1-0.5-4-2.2-4h-6v-3.7h2.7c4.2,0,8.7-0.4,10.6-0.7v50.9c0,11.8-3,15.4-12.5,15.4 c-0.6,0-2.3-0.2-2.5-0.3V79.9z M8.1,4.1C8.1,1.8,9.8,0,12.2,0s4.2,1.8,4.2,4.1c0,2.4-1.8,4.2-4.2,4.2S8.1,6.5,8.1,4.1z"/>
<path data-typeface="Karmina-Regular" d="M8.7,14c-0.1-2.7-0.5-5.2-1-7.6C5.5,5.1,2.8,4.2,0,3.6V0c3.8,0.2,9,0.3,13.1,0.3c4.4,0,7.8-0.1,12.2-0.3v3.6 c-2.4,0.6-4.2,1.3-6.2,2.6c-0.7,3.2-1.1,5.9-1.4,11v36.2c-0.1,7.1-0.4,11.7-0.9,16.7C14.3,72.8,6.2,82.4,3.6,85.4l-3-2.6 c5.5-8.3,8.1-16.6,8.1-26.9L8.7,14L8.7,14z"/>
<path data-typeface="Karmina-Regular" d="M7.2,36.4c-0.1-2.9-0.3-5.4-0.8-7.5c-1.5-1-3-1.5-5.5-2l-0.5-2.8c5.3-0.9,9.9-2,14.1-3.7l2,1c-0.6,1.9-1.3,7.5-1.3,9.5v29.7 c0,6.4-0.1,10.7-0.5,15.2c-2.4,2.4-9.6,10.3-12.2,13L0,86.6C5,79,7.2,72.3,7.2,62.9V36.4z M4.9,5.9c0,3.1,2.6,5.8,5.8,5.8 c3.1,0,5.8-2.7,5.8-5.8c0-3.2-2.7-5.9-5.8-5.9C7.5,0,4.9,2.7,4.9,5.9z"/>
<path data-typeface="KeplerStd-Disp" d="M10.4,0c2.1,0,6.8,0.4,11.8,0.4c3.3,0,9.3-0.4,11.7-0.4l-0.1,1.2l-3.9,0.4c-2.1,0.3-2.7,0.9-2.8,2.7 c-0.2,2.9-0.4,13.7-0.4,46.5c0,5.8-0.4,10.1-1.2,12.7c-1.1,4.4-3,8.4-5.8,11.5c-4.2,4.5-8.7,6.5-13.3,6.5c-4.1,0-6.4-2.3-6.4-3.8 C0,76.1,2.2,74,3.7,74c0.8,0,1.4,0.6,1.7,1.2c1.6,2.4,3.4,3.5,5.4,3.5c3.8,0,6.3-3.6,6.8-13.1c0.4-8.4,0.6-14.1,0.6-25.5V19.7 c0.1-8-0.1-12.4-0.2-15.3c-0.1-1.7-0.8-2.4-2.1-2.6c-1.2-0.2-4.1-0.5-5.9-0.6L10.4,0z"/>
<path data-typeface="KeplerStd-Disp" d="M6.7,20.9c4.6-0.2,10.1-0.7,14.2-1.4l0.3,0.2c0,6.4-0.2,12.9-0.2,33.6c0,6.2-0.2,10.8-0.7,14.6c-0.7,6-2.3,10.5-5.4,13.9 C10.3,86.7,4.6,88,3.1,88c-1,0-1.6-0.3-2.2-0.8c-0.3-0.4-0.7-1-0.9-1.5l0.4-0.5c1,0.4,2.4,0.6,3.9,0.6c3.7,0,7.5-1.8,8.2-12.3 c0.5-4.9,0.8-12.3,0.8-28.4c0-13.9-0.2-19.1-0.4-21.7c-0.2-1-0.5-1.4-1.9-1.4H7L6.7,20.9z M16.7,0c2.5,0,4.2,1.7,4.2,4.5 c0,2.7-2.2,4.4-4.6,4.4c-2,0-4.1-1.6-4.1-4.3C12.2,1.8,14.2,0,16.7,0L16.7,0z"/>
<path data-typeface="KinesisPro3-Light" d="M15,39.5V12c0-3.3-0.1-4.3-0.2-6.3c-0.1-1-0.4-1.1-2.4-1.3L6.7,3.7V0c3.7,0.3,7.6,0.5,11.4,0.5c3.9,0,8.1-0.2,12-0.5v3.7 L24,4.4c-2,0.2-2.3,0.3-2.4,1.3c-0.1,1.9-0.1,3.1-0.1,6.3v28.6c0,21,0.4,29-19.2,40.5L0,77.7C14.4,68.2,15,62.2,15,39.5z"/>
<path data-typeface="KinesisPro3-Light" d="M13.3,57.2V44.3c0-6-0.1-8.4-0.6-13.1l-6.3-1.4V28c4-1.1,7.6-2.4,11.2-4.5l1.8,1.3c-0.4,4.9-0.3,9.9-0.3,14.8v19.6 c0,10.6-1.1,16.1-2.9,19.4c-2.3,4.2-5.4,7.4-14,13.1l-2.2-3c4.4-2.9,7.8-5.6,10.3-10.3C12.9,73.7,13.3,66.5,13.3,57.2z M11.4,2.7 L18.8,0l1,1.1L16.7,15l-2.4,1L11.4,2.7z"/>
<path data-typeface="LeMondeLivreStd-Bold" d="M0,85.2c10.9-6.3,14.6-14.4,14.6-30.8V12.9c0-8.1-0.8-9-4.8-10.1L6.9,2V0H39v2l-2.9,0.8c-4,1.1-4.8,2-4.8,10.1v38.8 c0,20.1-10.9,27.8-29.4,36.8L0,85.2z"/>
<path data-typeface="LeMondeLivreStd-Bold" d="M0,95.1c11.9-6.9,12.3-16.8,12.3-30.2v-28c0-7.1-0.7-7.9-4.2-8.6l-2.9-0.6v-1.8l21-2.4l0.7,0.5v41 c0,15.5-5.1,24.4-25.5,32.8L0,95.1z M11.4,7.1c0-3.4,2.3-7.1,8.3-7.1c5.5,0,8.1,2.9,8.1,7c0,4.7-3.4,7.2-8.4,7.2 C13.9,14.2,11.4,10.9,11.4,7.1z"/>
<path data-typeface="LipaAgateHighNar-Regular" d="M26,49.8c0,13.3-4.5,19.1-17.2,19.1c-3.3,0-6.1-0.4-8.8-1.2v-6.2l0.6-0.4c2.3,0.6,4.2,1,6.5,1c8.5,0,10.3-4,10.3-13.2v-35 l0.6-7l-0.5-0.5l-8,0.5L5.2,7V0H26L26,49.8L26,49.8z"/>
<path data-typeface="LipaAgateHighNar-Regular" d="M0,88.8h2.4C8,88.8,9,86.7,9,79.4V21.5h8.2v58.1c0,11.5-4.1,16.5-14.4,16.5H0V88.8z M7.6,0h11.1v12.5H7.6V0z"/>
<path data-typeface="LithosPro-Regular" d="M24.4,39.6c0,21.8-9.6,32.2-19.8,36.8L0,69.2C9.4,64.9,15.4,57,15.4,39.4V23.8c0-1.7-0.3-21.4-0.5-23.8h10 c-0.2,1.8-0.5,12-0.5,24L24.4,39.6L24.4,39.6z"/>
<path data-typeface="LithosPro-Regular" d="M22.7,33.7c0,18.5-9,27.9-18.3,31.8L0,58.8c8.6-3.6,14-10.4,14-25.3V20.2C14,18.8,13.7,2,13.6,0h9.6 c-0.2,1.5-0.5,10.2-0.5,20.4L22.7,33.7L22.7,33.7z"/>
<path data-typeface="LosFelizOT-Roman" d="M24,7.9V2.5L30.3,0h11.9l5.6,2.7V7l-4.6,3v43.5c0,7.5-5.4,17.9-14.7,17.9h-13c-10,0-15.5-7.3-15.5-14 c0-6.9,4.1-10.3,8.5-10.3c5.4,0,8.4,3.1,8.4,7.4c0,4.2-2.7,5.1-2.7,7.2c0,2.2,1.1,2.8,6.3,2.8c5.9,0,8-2.7,8-8.7V10.2L24,7.9z"/>
<path data-typeface="LosFelizOT-Roman" d="M15.1,88.3C3.7,88.3,0,83.7,0,78.8s3.2-7.5,6.7-7.5c4.2,0,6.5,2.3,6.5,5.7c0,2.8-1.7,2.9-1.7,4.4c0,1,0.9,1.9,3.1,1.9 c4.2,0,5-3.1,5-8.3V29.3l-5.1-2.9v-3.3c7.3-1.2,10.8-3.7,13.7-6.1h3.3v56C31.5,81,26.7,88.3,15.1,88.3z M28.9,0 c2.3,0,3.5,1.2,3.5,3.2c0,5.5-7.3,10.1-11.8,10.1c-2.1,0-3.6-1.2-3.6-3.3C17,4.4,24.4,0,28.9,0z"/>
<path data-typeface="LouvetteBanner-Black" d="M26.8,67.7V0.6h-8.9V0h35.6v0.6H47v47.3c0,11-9,22.6-25.8,22.6C11.1,70.5,0,64,0,55.7c0-3.1,0.4-3.5,3-3.5h14.8v17.3 c0.9,0.3,2.1,0.4,3.4,0.4C24.5,69.9,26.8,69,26.8,67.7z"/>
<path data-typeface="LouvetteBanner-Black" d="M0,89.1v-0.6h0.4c3.7,0,6.3-1.8,6.3-6.3V24.3H1.9v-0.6h10.9l10.8-1v42.5c0,17.1-12.5,23.9-19.8,23.9H0z M6.8,7.8 c0-4.6,3.7-7.8,8.1-7.8C19.3,0,23,3.2,23,7.8c0,4.7-3.7,7.9-8.1,7.9S6.8,12.5,6.8,7.8z"/>
<path data-typeface="LucidaBright" d="M0,85.7V72.5h5.7v1.2l0.2,3.6c0,3.8,2,5.8,6.1,5.8c2.5,0,4.6-1,6.2-3.1c1.6-2.1,2.4-4.7,2.4-8v-6.9V12.6 C20.4,7.7,20,5,19.5,4.4s-2.9-1.1-7-1.3L11.6,3V0h28.3v3L39,3.1c-4,0.3-6.3,0.8-7,1.7c-0.7,0.8-1.1,3.5-1.1,7.9v46.4 c0,10.1-1.7,17.2-5.1,21.3c-3.4,4.2-9.2,6.3-17.3,6.3C5.7,86.7,2.9,86.4,0,85.7z"/>
<path data-typeface="LucidaBright" d="M28.5,19.2v52.4c0,7-1.5,12.3-4.4,15.8c-3,3.5-7.4,5.3-13.3,5.3C7.6,92.7,4,92.1,0,90.8V78.9h5.4v0.9c0,3.7,0.4,6.3,1.3,7.8 c0.9,1.4,2.5,2.2,4.9,2.2c3,0,5-0.9,5.9-2.6c0.9-1.7,1.4-5.3,1.4-10.9V31.9c0-4.4-0.4-7.1-1.1-7.9c-0.7-0.8-3.1-1.4-7.1-1.7H9.8v-3 L28.5,19.2L28.5,19.2z M18.9,9.6V0h9.6v9.6H18.9z"/>
<path data-typeface="Maiola" d="M18.2,46.6c0,5.1,0,10.6-0.3,15.3c-0.2,3.7-1.1,8.2-3.6,11.7C11.5,77.5,5.7,84,1.7,87.8L0,85.4c5.2-6.5,7.9-12.5,9.2-17.1 c1.3-5,1.5-12.5,1.5-18.5V8.4c0-1.4-0.2-3.2-0.8-3.8C8.3,3.7,5.5,3.2,3.4,3L2.6,0c4.1,0.4,8.9,0.5,13.3,0.5c3.3,0,6.5-0.1,9.4-0.2 L25.9,3c-2.4,0.2-6.2,0.9-7.2,1.7c-0.3,0.8-0.5,2.7-0.5,4.4V46.6z"/>
<path data-typeface="Maiola" d="M13.3,75.8c-1.7,2.8-8.9,10.7-11.9,14L0,87.3c3.1-4.1,7.2-10.1,8.8-15.1c1.2-3.8,1.3-11.2,1.3-13.5V36.9 c0-3.6-0.1-8.7-1.1-9.8c-1.7-0.7-3.7-1.2-6-1.2L2.4,24c5.5-0.4,10.8-1.3,15-2.3c-0.5,4.6-0.6,8.4-0.6,10.6v28 C16.8,69.1,15.3,72.6,13.3,75.8z M8.5,8.9C10.6,6,12.3,3.3,14.1,0l5.8,4.7c-1.8,2.7-4.7,6.5-6.7,8.7L8.5,8.9z"/>
<path data-typeface="Manicotti-Regular" d="M0.2,36.1h6.4v2.4c0,2.8,1.1,3.7,3.6,3.7h18.1c5.7,0,7.1-1,7.1-6.3c0-4.8-1.4-6.5-7.1-6.5H0V0h52.5v29.4h-3.1 c-2.9,0-3.6,2.2-3.6,6.5v6.8c0,26.5-3.1,27.8-22.8,27.8C1.3,70.5,0.2,69.3,0.2,36.1z"/>
<path data-typeface="Manicotti-Regular" d="M0,0h17.4v13.6H0V0z M0,69.8h3.2c3.9,0,5-1.6,5-5.5V46.5c0-3.5-0.9-4.5-3-4.5H0V15.9h17.4v63.2C17.4,90.9,15,94,3.3,94H0 V69.8z"/>
<path data-typeface="Marco-Sb" d="M37.7,0.3l0.4,0.8c0,1.6-0.5,3.9-1.3,5c-6.9,0-7.6,0.4-8,4.7c-0.5,6.6-0.9,16.2-0.9,29.1v15.9c0,15.3-8.2,25.7-25.6,30.7 C0.8,85.4,0,83.4,0,81.7L0.5,81c1.8-0.8,3.9-1.9,6-3.3c7.8-5.3,9.6-11,9.6-38.9c0-13.4-0.1-24-0.3-31.9C13.5,7,10.9,7.3,8.9,7.6 C8.2,6.5,7.7,4.1,7.7,2.5l0.4-0.7C13,0.8,23.1,0,30.7,0C34.5,0,36.4,0.1,37.7,0.3z"/>
<path data-typeface="Marco-Sb" d="M25.3,26.7c-1.2,4.2-2,15.6-2,27.1V63c0,13.1-2,19.3-9.1,26c-3.1,2.9-7,5.6-9.9,7c-2.4-0.7-3.9-2.8-4.3-5.2l0.6-1.2 c5.9-2.3,10.1-6.5,11-14.5c0.9-6.8,1.1-17.1,1.1-28.1c0-6.4-0.1-11.1-0.5-15.3l-0.3-0.4c-2.1,0.1-4.6,0.6-6.3,1.2 c-0.6-1.2-1.1-3.4-1.1-4.9l0.6-0.7c5.1-1.5,11.7-2.8,17.3-3.3C23.6,23.6,25.3,25,25.3,26.7z M18.9,0c3,0,6.4,4.2,6.4,7.1 c0,3.4-4.4,7.5-8.4,7.5c-3,0-6.4-4-6.4-7.6C10.5,3.6,14.9,0,18.9,0z"/>
<path data-typeface="MasonSerifOT-Regular" d="M22.1,18.6c-0.4,0-0.6,0-1.1,0.1c-4.9,0.5-6.5,1.9-6.5,5.9v69L7.7,103V24.6c0-4-1.6-5.4-6.5-5.9c-0.5-0.1-0.7-0.1-1.1-0.1 L0,17.3l1.4,0.1c3.5,0.3,5.9,0.5,7.8,0.5H13c1.9,0,4.3-0.2,7.8-0.5l1.4-0.1L22.1,18.6z M11.5,13h-0.8c-1.1-2.6-3.5-5-6.1-6.1V6.1 C7.2,5,9.6,2.6,10.7,0h0.8c1.1,2.6,3.5,5,6.1,6.1v0.8C15,8,12.6,10.4,11.5,13z"/>
<path data-typeface="MasonSerifOT-Regular" d="M19.6,19.1c-0.4,0-0.6,0-1.1,0.1c-4.9,0.5-5.5,1.9-5.5,5.9v46l-6.3,7.4V25.1c0-4-0.6-5.4-5.5-5.9c-0.5-0.1-0.7-0.1-1.1-0.1 L0,17.7l1.4,0.1c3.5,0.3,4.9,0.5,6.8,0.5h3.3c1.9,0,3.3-0.2,6.8-0.5l1.4-0.1L19.6,19.1z M10.2,11.9H9.5c-1-2.4-3.2-4.6-5.6-5.6V5.6 c2.4-1,4.6-3.2,5.6-5.6h0.7c1,2.4,3.2,4.6,5.6,5.6v0.7C13.4,7.3,11.2,9.5,10.2,11.9z"/>
<path data-typeface="MightySlab-One" d="M0,45.7c0-11.4,6.4-18.1,17.2-18.1c9.8,0,15.7,5.5,15.7,14.4c0,4.7-1.6,8.2-4.6,10.3l0.2,0.4c5.1-0.9,7.7-5,7.7-12.3v-15 h-8.7V0h44.8v25.4h-3.9v15c0,21.3-9.4,29.2-35,29.2C11.6,69.6,0,61.1,0,45.7z"/>
<path data-typeface="MightySlab-One" d="M0,85.3V60.5h3.7V41.3H0V28.1c3.7,3.3,10.6,5.4,18.3,5.4c5.9,0,11.2-1.2,16-3.7v37.7c0,14.3-5.8,20-20.2,20 C9,87.5,4.6,86.8,0,85.3z M0.9,15.1C0.9,5.9,7.6,0,18.2,0s17.3,5.9,17.3,15.1c0,9.2-6.7,15.1-17.3,15.1S0.9,24.3,0.9,15.1z"/>
<path data-typeface="Milka-Regular" d="M34.5,71.4h-0.7C14.4,71.4,0,57.2,0,37.6v-1.1l34.5-0.1V71.4z M70.5,0v35.2c0,22.7-10.1,36.2-30.1,36.2h-2.9V0H70.5z"/>
<path data-typeface="Milka-Regular" d="M34,0v21.6H0V0H34z M9.2,103.2c-2.2,0-4.7-0.1-8.2-0.5V26.1h32v51.2c0,20.7-4.5,25.9-22.7,25.9L9.2,103.2L9.2,103.2z"/>
<path data-typeface="Minion3Caption-Semibold" d="M32.9,4.4c-7.4,0.7-8.3,1.3-8.3,9.4v33.9c0,12.5-2.1,21.8-11.3,28.7C9.6,79.1,5.5,80.8,2,81.7l-2-4.4 c6.7-2.9,9.4-6.7,10.7-13.3c0.9-5.2,1-10.5,1-17.9V13.8c0-8.1-0.9-8.8-9.1-9.4V0h30.3L32.9,4.4L32.9,4.4z"/>
<path data-typeface="Minion3Caption-Semibold" d="M5.9,24.2c6.1-0.6,12.3-1.9,18.5-3.6V53c0,8-0.6,11.9-2.7,17.1C17.8,79.4,11.1,87,8,89.2c-1.5,1.1-2.2,1.5-3.6,1.5 c-1.7,0-4.4-2.5-4.4-5.9c0-1.6,0.8-2.6,2.5-2.9c4.1-0.5,6.7-1.3,7.7-2.4c0.9-1.1,1.4-3.1,1.8-6.1c0.4-4.5,0.6-11.5,0.6-20.5V36.4 c0-7.4-0.6-7.5-6.7-8.3V24.2z M17.7,14.2c-3.8,0-7.3-3.2-7.3-7c0-4.1,3.5-7.2,7.4-7.2c4,0,7.2,3.1,7.2,7.2 C25,11,21.8,14.2,17.7,14.2z"/>
<path data-typeface="MislabStd-Light" d="M24.4,5.1h-7l-0.7,0.7V54c0,11.3-0.8,14.7-6.7,28.4H3.2c4.9-14.6,5.4-17.3,5.4-26.9V5.8L7.9,5.1H0V0h24.4L24.4,5.1L24.4,5.1 z"/>
<path data-typeface="MislabStd-Light" d="M16.4,59c0,12.2-1,16-7,28.6H3.3c4.5-13.2,5.5-16.4,5.5-27.1V24l-0.7-0.7H0v-5.1h16.4L16.4,59L16.4,59z M7.9,9.8V0h8.5v9.8 H7.9z"/>
<path data-typeface="Mobley-Sans" d="M35.3,79.6H14.1C5.9,79.6,0,72.9,0,64.8v-24h22.9v22.1c1.7,0,3.6-1,3.6-2.9V0h23.6v64.8C50.1,72.9,43.4,79.6,35.3,79.6z"/>
<path data-typeface="Mobley-Sans" d="M28.1,84.1c-2.1,3.7-5.8,7.4-12.5,7.4H0V73.8h5c1.7,0,3-1.3,3-3.6V10.4h22.6v66.2C30.1,79.4,29.3,81.9,28.1,84.1z M8,0h22.5 v6.8H8V0z"/>
<path data-typeface="Modern-Regular" d="M13.5,64.5c4.7,0,7.6-1.8,8.9-5.5c0.8-2.3,1.2-7.2,1.2-14.7V6.5c0-1.9-0.2-3.1-0.5-3.6c-0.1-0.3-0.6-0.5-1.4-0.8 s-2.3-0.5-4.5-0.8C14.9,1,12.3,0.9,9.4,0.9V0H49v0.9c-5.5,0-9.4,0.4-11.5,1.2l-0.9,0.4c-0.5,0.5-0.7,1.8-0.7,4v37 c0,6.5-2,11.8-6.1,15.8c-4.1,4.1-9.5,6.1-16.3,6.1c-2.9,0-5.5-0.9-7.8-2.7S1.8,59,1.1,57S0,53.2,0,51.6c0-4.3,1.6-7.4,4.8-9.2 c1.1-0.7,2.4-1,3.7-1c1.9,0,3.6,0.7,5,2.1c1.4,1.4,2.1,3.2,2.1,5.5c0,2.1-0.8,3.8-2.3,5.1C11.7,55.4,10,56,8.1,56 c-0.9,0-1.7-0.1-2.4-0.4c-0.7-0.3-1.4-0.7-2.1-1.3c-0.1,0.7-0.2,1.2-0.2,1.5c0,2.3,1,4.3,3.2,6C8.5,63.6,10.9,64.5,13.5,64.5z"/>
<path data-typeface="Modern-Regular" d="M17.6,74.7V29.9c0-0.7,0-1.3-0.1-1.8c0-0.5-0.2-0.9-0.4-1.3c-0.5-0.7-0.9-1.1-1.4-1.2c-1.2-0.3-4-0.5-8.3-0.5v-0.9L27,22.5 v46.3c0,4.4-1.7,8.4-5.1,11.9S14.7,86,10.6,86c-2.5,0-4.7-0.4-6.4-1.3c-1.7-0.8-2.9-1.8-3.4-3S0,79.4,0,78.3c0-2,1-3.6,2.9-4.7 c0.7-0.5,1.6-0.7,2.6-0.7c1.2,0,2.3,0.5,3.3,1.3c1,0.9,1.5,2.1,1.5,3.7c0,1.4-0.5,2.5-1.4,3.5c-0.9,0.9-2.2,1.3-3.7,1.3 c0.7,1.1,1.2,1.8,1.7,2S8.3,85,9.8,85c2.4,0,4.3-0.8,5.7-2.3C16.9,81.2,17.6,78.5,17.6,74.7z M21.7,0c1.6,0,2.9,0.5,4,1.6 s1.6,2.4,1.6,4s-0.5,2.9-1.6,4s-2.4,1.6-4,1.6s-2.9-0.5-4-1.6s-1.6-2.4-1.6-4s0.5-2.9,1.6-4S20.2,0,21.7,0z"/>
<path data-typeface="Monarcha" d="M33,54.1c-0.2,7-0.8,14.2-4.5,19.8C23,82.2,11.6,84.6,1.6,84.7c-1,0-1.6-0.8-1.6-1.6c0-0.7,0.5-1.4,1.6-1.5 c9.2-1.2,14.5-4.9,17.3-10.1c2.6-4.9,3-11,3.3-19.2l1.4-40c0-5.8-2.3-8.5-9.2-9.4C13.7,2.8,13,2.3,13,1.4S13.7,0,14.6,0H41 c0.8,0,1.5,0.4,1.5,1.4c0,0.8-0.5,1.3-1.4,1.5c-6,1.4-6.7,5.3-6.9,10.7L33,54.1z"/>
<path data-typeface="Monarcha" d="M12.1,32.3c-0.2-0.3-0.4-0.9-0.4-1.4c0-1,0.7-1.9,1.9-2.1c3.2-0.6,6.9-2.3,9.6-4.1c1.4-0.9,2.5-1.8,4.2-1.8 c1.1,0,2.3,0.4,2.9,1.3l-1.6,48.3c-0.3,7.6-2.5,12.9-6.9,16.6c-5,4.2-12.5,6.2-20.5,6.3c-0.8,0-1.3-0.7-1.3-1.6 c0-0.7,0.5-1.4,1.3-1.4c4.6-0.2,9.1-2.2,12.2-5.4c3.6-3.9,4.8-9.4,5-14.5l1.2-35C19.7,33.7,17.2,32.3,12.1,32.3z M31.4,5.9 c0,4.2-2.7,6.7-7,6.7c-4.5,0-6.4-2.3-6.4-5.8C18,2.4,20.7,0,25.1,0S31.4,2.3,31.4,5.9z"/>
<path data-typeface="Mongoose-Black" d="M0,44v-3.4h12.8V57c0,1.1,0.3,1.2,0.5,1.2s0.5-0.1,0.5-1.2V0h12.8v44c0,11.1-0.6,15.4-2,18.4c-2.1,4.4-5.7,6.4-10.8,6.4 C8,68.8,4.2,67,2.1,62.4C0.7,59.4,0,55.3,0,44z"/>
<path data-typeface="Mongoose-Black" d="M0,81.2h2.6c0.5,0,1.4-0.1,1.8-0.9c0.3-0.7,0.4-1.9,0.4-4.7V15.2h12.8v60.4c0,5.1-0.4,9-2.3,11.6C13.3,89.9,10.2,91,4,91 c-2.1,0-4-0.4-4-0.4V81.2z M4.6,6.2c0-2.9,0.5-4.4,1.4-5C7.2,0.4,9.4,0,11.2,0c1.8,0,4,0.4,5.2,1.2c0.9,0.6,1.4,2.1,1.4,5 s-0.5,4.4-1.4,5c-1,0.7-3.1,1.2-5.2,1.2S7,11.9,6,11.2C5.1,10.6,4.6,9.1,4.6,6.2z"/>
<path data-typeface="Montserrat-Light" d="M0,60.5l3.1-3.4c3.8,5.7,9.2,8.8,15.5,8.8c9.3,0,13.9-5.3,13.9-16.5V4.6H6.7V0h30.9v49.4c0,14.1-6.5,21.1-19,21.1 C11,70.5,4,66.8,0,60.5z"/>
<path data-typeface="Montserrat-Light" d="M0,89.3l2-3.7c2.1,1.9,5.1,2.9,8.5,2.9c6.1,0,9.4-3.7,9.4-10.5V20.8h5v57.4c0,8.8-5,14.6-14.1,14.6 C6.6,92.8,2.5,91.7,0,89.3z M18.3,4.1c0-2.2,1.8-4.1,4.1-4.1c2.3,0,4.1,1.8,4.1,4c0,2.3-1.8,4.1-4.1,4.1S18.3,6.3,18.3,4.1z"/>
<path data-typeface="MrsEavesOT-Roman" d="M0,72.8c0-1.9,1.5-3.4,3.5-3.4c1.9,0,3.4,1.5,3.4,3.4c0,3,2.6,6.5,7.8,6.5c5.9,0,9.5-4.2,9.5-13.8V13.7 c0-10-1.2-11.6-9.5-11.6V0h27v2.1c-8.3,0-9.5,1.6-9.5,11.6v50.7c0,14.3-9.7,17.9-17.5,17.9C8.8,82.3,0,79,0,72.8z"/>
<path data-typeface="MrsEavesOT-Roman" d="M0,72.2c0-1.6,1-2.9,2.9-2.9c5.3,0,2.2,7.8,9.3,7.8c3.9,0,7.1-3,7.1-15.6V34.9c0-10-1.3-11.6-7.9-11.6v-2.1l15-2.5v42.8 c0,13.3-7.1,18.9-14.7,18.9C4.1,80.4,0,75.5,0,72.2z M18.4,4.4c0-2.4,2-4.4,4.4-4.4s4.4,2,4.4,4.4c0,2.5-2,4.5-4.4,4.5 S18.4,6.9,18.4,4.4z"/>
<path data-typeface="Muscle-Narrow" d="M62.4,51c0,5.4-3.5,9-9,9H9c-5.5,0-9-3.6-9-9V32c0-1.2,0.8-2,2-2h25.7c1.2,0,2,0.8,2,2v21h3V2c0-1.2,0.8-2,2-2h25.7 c1.2,0,2,0.8,2,2L62.4,51L62.4,51z"/>
<path data-typeface="Muscle-Narrow" d="M29.5,67.2c0,5.4-3.5,9-9,9H2c-1.2,0-2-0.8-2-2V65c0-1.2,0.8-2,2-2h1V14c0-1.2,0.8-2,2-2h22.5c1.2,0,2,0.8,2,2V67.2z M3,2 c0-1.2,0.8-2,2-2h22.5c1.2,0,2,0.8,2,2v5c0,1.2-0.8,2-2,2H5C3.8,9,3,8.2,3,7V2z"/>
<path data-typeface="Museo-500" d="M0,46.8h10v2.7c0,9.8,5.6,12.9,11.1,12.9c5.6,0,11-3.3,11-12.5V10.8c0-1.5-0.8-2.2-2.2-2.2H12.6V0h23.1 c4.5,0,6.4,1.9,6.4,6.4v43.9c0,15.3-10.7,21.5-21.1,21.5S0,65.5,0,50.3L0,46.8L0,46.8z"/>
<path data-typeface="Museo-500" d="M2.2,82.8c3.7,0,10.8-1.2,10.8-11.1V30.5c0-1.5-0.8-2.2-2.2-2.2H6.7V20h9.6c4.5,0,6.4,1.9,6.4,6.4v45.9 c0,16.9-13,18.9-19.4,18.9C1.3,91.2,0,91,0,91v-8.3C0,82.7,0.9,82.8,2.2,82.8z M13.2,0H22v10.1h-8.8V0z"/>
<path data-typeface="MyriadPro-Regular" d="M21,0h8.7v45.1c0,17.9-8.8,23.4-20.4,23.4c-3.2,0-7.1-0.7-9.3-1.6l1.3-7.1c1.8,0.7,4.4,1.3,7.3,1.3 c7.8,0,12.4-3.5,12.4-16.7V0z"/>
<path data-typeface="MyriadPro-Regular" d="M0,81.5c4-0.3,7.5-1.4,9.6-3.7c2.4-2.8,3.3-6.6,3.3-18.2V19.1h8.8V63c0,9.4-1.5,15.5-5.8,19.9c-3.9,3.9-10.3,5.5-15,5.5 L0,81.5z M22.7,5.5c0.1,2.9-2,5.4-5.5,5.4c-3.3,0-5.4-2.5-5.4-5.4c0-3.1,2.3-5.5,5.6-5.5C20.6,0,22.7,2.4,22.7,5.5z"/>
<path data-typeface="MuseoSlab-1000" d="M0,43.1h20.5v5.6c0,3.3,0.1,5.8,3.6,5.8c3.1,0,3.4-2.1,3.4-5.8V15.4h-8.4V0h36.6v15.4h-6.6V49c0,16-12.5,24.1-24.9,24.1 C12,73.1,0,66,0,50.3L0,43.1L0,43.1z"/>
<path data-typeface="MuseoSlab-1000" d="M2.2,76.4c3.2,0,8.5-0.7,8.5-5.1V34.8H4.3V20h27.3v52.4c0,17.5-17.7,20.4-26.5,20.4C2,92.8,0,92.5,0,92.5V76.3 C0,76.3,0.9,76.4,2.2,76.4z M11.1,0h20.1v15.2H11.1V0z"/>
<path data-typeface="Neplus-Ultra" d="M9.8,0h56.3v44c0,17.2-13.1,28-32.9,28C13.9,72,0,63.1,0,44.9v-7.2h26.7v22.1h1.9V26.3H9.8V0z"/>
<path data-typeface="Neplus-Ultra" d="M45,13.6v45.6c0,12.1-5,27.3-26.6,27.3c-7.6,0-15.2-1-18.4-1.8V62.1h12.5v12.5h1.8V34.4H5.9V13.6H45z M14.1,12.1V0h31.1 v12.1H14.1z"/>
<path data-typeface="Niagara-Regular" d="M24.5,1.8H22v59.5c0,5-4.4,9.2-11,9.2S0,66.3,0,61.3V49h8v16.1c0,1.9,0.8,3.6,3,3.6s3-1.7,3-3.6V1.8h-2.5V0h13V1.8z"/>
<path data-typeface="Niagara-Regular" d="M13.8,73.8C13.8,79.4,9.1,84,2.5,84H0v-1.8h2.5c2.2,0,3.5-1.8,3.5-4V19.8H3.5V18h10.3V73.8z M13.8,12H6V0h7.8V12z"/>
<path data-typeface="ObjektivMk1-Regular" d="M17,77.5c-3,0-6-0.4-9.2-1.2c-3.1-0.8-5.7-1.8-7.8-3.1l1-8.1c2.3,1.4,4.8,2.5,7.5,3.2s5.5,1.1,8.3,1.1 c5.5,0,9.4-1.5,11.7-4.5s3.4-8.2,3.4-15.5V0h9v50.2c0,9.4-1.9,16.3-5.8,20.8C31.2,75.3,25.2,77.5,17,77.5z"/>
<path data-typeface="ObjektivMk1-Regular" d="M5.9,12c-1.7,0-3.1-0.6-4.2-1.7C0.6,9.2,0,7.7,0,6s0.6-3.2,1.7-4.3C2.8,0.6,4.2,0,5.9,0S9,0.6,10.1,1.7 c1.1,1.1,1.6,2.6,1.6,4.3s-0.5,3.2-1.6,4.3C9,11.4,7.6,12,5.9,12z M1.7,99.9V25.4h8.5v74.5H1.7z"/>
<path data-typeface="Odile-Light" d="M24.9,64.6c0,8.5-7.6,19.6-23.4,22.3C0.2,84.9,0,83.4,0,82c0-4.2,3-6.1,7.2-6.1c2.6,0,5.4,0.8,7.3,1.7c0,0,3.7-3.3,3.7-10.5 v-54c0-8.8-1.2-8.9-3.1-8.9H8.6V0h25.9v4.2h-9.6L24.9,64.6L24.9,64.6z"/>
<path data-typeface="Odile-Light" d="M21,71.9c0,8.2-5.6,19.4-19.6,21C0.3,91,0,89.9,0,88.6c0-3.3,3-4.4,5.6-4.4c2.4,0,4.6,1.1,6.2,1.9c0,0,3.6-4.9,3.6-12.2 V35.5c0-8.8-1.2-8.8-3.1-8.8H6.7v-4L21,21.9V71.9z M17.7,9.5c-2.6,0-4.7-2.1-4.7-4.7C13,2.2,15.1,0,17.7,0c2.6,0,4.8,2.2,4.8,4.8 C22.5,7.4,20.3,9.5,17.7,9.5z"/>
<path data-typeface="Operetta18-Medium" d="M44.2,0v1.1h-8.9v49.3c0,20.2-6.9,34.1-21.7,34.1C3.8,84.5,0,78.4,0,73.6c0-3.9,2.6-7.3,6.7-7.3c3.5,0,6.4,2.6,6.4,6.6 c0,3.8-3,6.1-6.1,6.1c-3.7,0-5.5-2.9-6-5c0,3.8,3.5,9.4,12.2,9.4c7.6,0,12.9-4,12.9-13.2c0-4.3-1-9.8-2.9-16.5V1.1h-8.8V0L44.2,0 L44.2,0z"/>
<path data-typeface="Operetta18-Medium" d="M21.9,61c0,19.9-5.2,30.5-14.2,30.5c-5.1,0-7.7-3.5-7.7-7s2.3-6.6,6-6.6c3.1,0,5.5,2.3,5.5,5.5c0,3-2.2,5.3-5.2,5.3 c-3.2,0-4.8-2.4-5.3-4.1c0,3.2,2.5,5.9,6.6,5.9c5.4,0,8.3-4.5,8.3-10.8c0-4-1.1-8.5-4-14.8V22.6H4.3v-1.1c6.3,0,11.6-0.2,17.6-1.4 L21.9,61L21.9,61z M16.4,11c-3,0-5.5-2.3-5.5-5.5S13.4,0,16.4,0s5.5,2.4,5.5,5.5S19.4,11,16.4,11z"/>
<path data-typeface="ParalucentCondensed-ExtraLight" d="M0,63.9v-3.8c2,0.3,3.8,0.4,5.3,0.4c9.5,0,11.5-4.9,11.5-15.6V0H21v44.8c0,13-2.6,19.5-14.8,19.5C4.3,64.3,2.3,64.1,0,63.9z "/>
<path data-typeface="ParalucentCondensed-ExtraLight" d="M0,85.3v-3.7c1,0.2,1.9,0.2,2.7,0.2c4.7,0,6.3-2.6,6.3-8.5V13.5h4v59.8c0,7.9-2.3,12.3-9.4,12.3C2.5,85.6,1.3,85.5,0,85.3z  M7,3.9C7,0.9,8.3,0,10.9,0c2.8,0,3.9,0.9,3.9,3.9c0,2.8-1.1,4-3.9,4C8.3,7.9,7,6.7,7,3.9z"/>
<path data-typeface="Pilsner-Regular" d="M19.5,30.2L20.1,71l-9.6,2.6L0,72.4v-6.9l10,1.6l0.8-36.9L10,0h10.3L19.5,30.2z"/>
<path data-typeface="Pilsner-Regular" d="M7.3,74.4L0,73.8v-6.2l8.3,1.3l0.5-23.5L7.9,22.8h10.3l-0.9,22.6l0.9,27L7.3,74.4z M17.8,10.4H8.3L7.9,5.2L8.3,0h9.5 l0.4,5.2L17.8,10.4z"/>
<path data-typeface="Playbill" d="M26.6,0.1v17h-3.3V43v6.8l-0.1,4.9c0,8.7-3.6,13.1-10.9,13.1C4.1,67.8,0,62,0,50.4c0-5,0.3-9.6,0.9-13.6h8.5 C9.1,39.2,9,41.4,9,43.4c0,3.7,0.8,5.5,2.5,5.5c1.6,0,2.4-1.2,2.4-3.5V42V17h-3.6V0h16.3V0.1z"/>
<path data-typeface="Playbill" d="M10.7,17.1v49.7c0,7.8-0.4,12.8-1.2,14.8c-0.8,2.1-2.7,3.1-5.7,3.1c-1.3,0-2.6-0.2-3.8-0.7v-9.2c0.5,0.1,0.9,0.1,1.2,0.1 c1.7,0,2.5-2.2,2.5-6.5V30.5H0.8V17.2L10.7,17.1L10.7,17.1z M10.4,0v11.2h-7V0H10.4z"/>
<path data-typeface="Plume-Bold" d="M0,59.5c2.3,0.9,4.2,1.6,5.7,2s3.2,0.7,5,0.7c4.5,0,6.7-2.6,6.7-7.9V9.8h-6.6V0h26v9.8h-6.1v46.4c0,2.4-0.4,4.6-1.1,6.6 c-0.8,2-1.9,3.7-3.3,5.2c-1.4,1.4-3.2,2.6-5.3,3.4c-2.1,0.8-4.6,1.3-7.4,1.3s-5.2-0.2-7.3-0.6c-2-0.4-4.1-1-6.3-1.8L0,59.5L0,59.5z" />
<path data-typeface="Plume-Bold" d="M0,82.7c1.6,0.7,3.1,1.2,4.4,1.5s2.6,0.5,4.1,0.5c1.9,0,3.4-0.5,4.4-1.7c1-1.1,1.5-3.2,1.5-6.3V35.1c0-0.7-0.2-1.3-0.6-1.7 s-1-0.5-1.6-0.5c-0.4,0-0.9,0.1-1.5,0.3s-1.3,0.5-2,1L5.1,28c2-1.5,4.1-2.8,6.3-3.8c2.2-1,4.3-1.5,6.3-1.5c1.9,0,3.5,0.3,4.8,0.8 c1.3,0.6,2.3,1.4,3,2.4s1.3,2.1,1.5,3.4c0.3,1.3,0.5,2.7,0.5,4.2v45c0,2.2-0.3,4.3-0.9,6.2s-1.6,3.6-2.9,5.1s-3,2.6-5,3.5 c-2,0.8-4.4,1.3-7.2,1.3c-2.4,0-4.4-0.2-6.1-0.6C3.8,93.6,2,93,0,92.3L0,82.7L0,82.7z M11.3,7.8c0-2.1,0.8-4,2.3-5.5S16.9,0,19,0 s4,0.8,5.5,2.3s2.3,3.3,2.3,5.5c0,2.1-0.8,4-2.3,5.5s-3.3,2.3-5.5,2.3c-2.1,0-3.9-0.8-5.4-2.3S11.3,9.9,11.3,7.8z"/>
<path data-typeface="PostinoStd" d="M74.4,15.3L61,14.1l-0.6,26.1c-0.5,17.1-5.7,32.1-30.3,32.1c-14.8,0-27-5.1-30.1-8l6.6-16.2c3.5,3,11.1,7.6,20.9,7.6 c8.2,0,14.1-3.8,14.1-16.3c0-2.4-0.6-11.9-1.1-25.8l-24,2.1V0c8.9,0.2,16.6,0.8,35.3,0.8C60,0.8,66.9,0.4,74.4,0V15.3z"/>
<path data-typeface="PostinoStd" d="M30.7,37.7l-16.3,5.2l-4.3-17l40.2-4.3l-1.9,46.2c-0.5,18-9.3,25.4-23.9,25.4c-11.2,0-20.4-3.8-24.5-6.7l8.3-13.4 c3.4,2.5,9,5.7,14.8,5.7c6.7,0,8.6-3.5,8.6-12.5L30.7,37.7z M52.4,1.9v12.3l-23.9,1.7V0L52.4,1.9z"/>
<path data-typeface="PrioriSansOT-Black" d="M15.9,66.6L0,82.5V0h15.9V66.6z"/>
<path data-typeface="PrioriSansOT-Black" d="M0,7.7L7.8,0l7.8,7.7l-7.8,7.7L0,7.7z M0.5,82.8V22.2h14.6v46L0.5,82.8z"/>
<path data-typeface="Productus-SemiBold" d="M4.4,0h13.2l-0.4,6.2L17,12.4v54.2c0,7.7-2.2,15.7-7.2,23.2L0,85.1c4-7.3,5-13.6,5-18.5V12.4L4.8,6.2L4.4,0z"/>
<path data-typeface="Productus-SemiBold" d="M3.4,24.7h13L16,30.9l-0.2,6.2v35.4c0,6.2-1.1,13.5-6.4,22.1L0,90c3.3-5.5,4-10.4,4-17.5V37.1l-0.2-6.2L3.4,24.7z M10,14.8 c-4.2,0-7.4-3.2-7.4-7.4S5.8,0,10,0s7.3,3.2,7.3,7.4C17.3,11.5,14.1,14.8,10,14.8z"/>
<path data-typeface="Prometo-Medium" d="M2,59.9C3.8,60,5.6,60,7.4,60c1.8,0,3.9,0,6.4,0c2.3,0,4.3-0.2,5.9-0.5c1.6-0.3,2.8-1,3.8-2.2c0.9-1.1,1.6-2.8,2-5 s0.6-5.2,0.6-9V0h13.3v45c0,4.9-0.4,9-1.1,12.3c-0.8,3.3-2.1,6.1-3.9,8.2c-1.8,2.1-4.3,3.6-7.3,4.5s-6.8,1.4-11.4,1.4 c-3.9,0-7.1,0-9.5,0S1.7,71.3,0,71.2L2,59.9z"/>
<path data-typeface="Prometo-Medium" d="M2,81.4c1.1,0.1,2.1,0.1,3,0.1s2,0,3.1,0c1.5,0,2.7-0.1,3.6-0.3c1-0.2,1.8-0.6,2.4-1.2c0.6-0.6,1-1.5,1.3-2.7 c0.2-1.2,0.3-2.7,0.3-4.6V21.8h13v50.9c0,3.7-0.3,6.7-1,9.1c-0.7,2.4-1.8,4.3-3.3,5.8c-1.5,1.4-3.4,2.5-5.8,3 c-2.4,0.6-5.3,0.9-8.8,0.9c-2.2,0-4,0-5.5,0S1.4,91.4,0,91.3L2,81.4z M30,7.1c0,2.5-0.6,4.4-1.7,5.5c-1.1,1.1-3.1,1.7-6,1.7 s-4.9-0.6-6-1.7c-1.1-1.1-1.7-2.9-1.7-5.5c0-2.5,0.6-4.3,1.7-5.4c1.1-1.1,3.1-1.7,6-1.7s4.9,0.6,6,1.7S30,4.6,30,7.1z"/>
<path data-typeface="ProximaNovaExCn-Black" d="M4,50.7c1.3,1.1,3.3,1.6,5,1.6c3.4,0,6-1.9,6-5.7V0h17.7v47.5c0,14.3-8.8,20.4-21.5,20.4c-3.8,0-8-0.6-11.2-2.7L4,50.7z"/>
<path data-typeface="ProximaNovaExCn-Black" d="M20.1,72.9c0,11.5-4.9,18.3-16.4,18.3c-1.1,0-2.4-0.1-3.7-0.4V77.5c0.6,0.1,1,0.1,1.2,0.1c2,0,3.1-1.2,3.1-4.7V23.3h15.8 V72.9z M3.2,9.1c0-5,4-9.1,9-9.1s9,4.1,9,9.1s-4,9-9,9S3.2,14.1,3.2,9.1z"/>
<path data-typeface="QuagmireExtended-Medium" d="M15,65.2c-3.1,0-8.8-0.8-15-2V52.7h5.5c8.6,0,9.5-2.3,9.5-8.8l-0.1-12.6L15,0h15.5v45.8C30.5,62.4,24.3,65.2,15,65.2z"/>
<path data-typeface="QuagmireExtended-Medium" d="M12.1,92.7C9.3,92.7,5,92,0,90.8v-8.7h5c8.6,0,9.7-2.3,9.7-8.8V31.6L2.5,29.7v-9.5h25.3v53.1C27.8,89.9,21.5,92.7,12.1,92.7 z M21.3,13.8c-5.5,0-9.5-0.6-9.5-6.9c0-6.4,4-6.9,9.5-6.9c5.1,0,9.1,0.5,9.1,6.9C30.4,13.2,26.4,13.8,21.3,13.8z"/>
<path data-typeface="Quatro-UltraBlack" d="M14.9,94L0,77.8c6.2-5.7,9.3-11.1,9.3-17V0h25.6v58.6C34.9,72.9,27.2,84,14.9,94z"/>
<path data-typeface="Quatro-UltraBlack" d="M35.3,69.9c0,14.9-11.3,24.9-26.4,30.4L0,85.9c9.3-5,10.3-8.8,10.3-17.5V20.5h25V69.9z M10,0h25.6v16.3H10V0z"/>
<path data-typeface="QuestaGrande-Light" d="M0,77.8c14.8,0.3,15.4-9.1,15.4-20.7V1.5H6.3V0h26.3v1.5h-9.1v47.8c0,13.1-4.7,30.5-23.5,30L0,77.8L0,77.8z"/>
<path data-typeface="QuestaGrande-Light" d="M0,88.4c9.9,0,12.5-6.1,12.5-18.9V23.2H5.2v-1.5h14.4v39.6c0,12.2-1.2,28.6-19.6,28.6V88.4z M15.2,0C17.7,0,20,2.3,20,4.8 s-2.3,4.8-4.8,4.8s-4.8-2.3-4.8-4.8S12.7,0,15.2,0z"/>
<path data-typeface="Ratio-Medium" d="M5.5,87.6c-1.9-2.9-3.7-5.9-5.5-8.7c9.5-5.7,12.6-10.4,12.6-19.1V9.6H1.5V0h23.7v57.3C25.2,71.9,21.1,80,5.5,87.6z"/>
<path data-typeface="Ratio-Medium" d="M21.8,68.5c0,9.7-2.6,19.6-17.2,27.3L0,88.1C7.1,83,10,77.5,10,69.8V23.1l9.9-1.4h1.9L21.8,68.5L21.8,68.5z M9,0h13.7v11 L9,13.2V0z"/>
<path data-typeface="RatioModern-ExtraBold" d="M25.3,1.9h-9.5c-0.7,0-1.1-0.1-1.1-1c0-0.8,0.4-0.9,1.1-0.9C19.1,0.1,32,0.3,36.5,0.3C42,0.3,55.1,0,55.9,0 c0.4,0,0.9,0.1,0.9,0.9s-0.4,1-1,1H50v69.2c0,22.3-13.8,24.2-26.7,24.2C2.5,95.3,0,87,0,81.9c0-6.7,4.1-11.6,10.7-11.6 c5.9,0,11.3,4,11.3,10.6c0,5.2-3.3,8.7-6.9,8.7c-0.9,0-1.7,0-1.7,0.8c0,1.4,2.1,2.8,5.6,2.8c6.3,0,6.3-4.4,6.3-12.6V1.9z"/>
<path data-typeface="RatioModern-ExtraBold" d="M6.2,34c0-3.1-0.6-3.7-2.9-3.7H2.1c-0.6,0-1-0.1-1-1c0-0.8,0.4-0.9,1.2-0.9s9.8,0.1,13.8,0.1c8.8,0,12.7-0.5,13.5-0.5 c0.4,0,0.4,0.2,0.4,0.9v35c0,5.4,3.8,6.8,3.8,14.7c0,15-13.4,15.8-18.1,15.8C9.2,94.4,0,92.9,0,83.3c0-6.7,4.5-8.9,8.5-8.9 c3.5,0,8.2,1.8,8.2,7.5c0,4.6-3.1,6.5-5.9,6.9c-0.9,0.1-1.2,0.2-1.2,0.5c0,0.2,0.2,0.5,0.8,0.8c0.7,0.5,1.9,1,3.6,1 c3.8,0,7.4-2.3,7.4-8.3c0-9.5-9.3-11.5-12.6-12.9c-2.4-1-2.6-1.8-2.6-4.5L6.2,34L6.2,34z M18.9,22.8c-6.4,0-11.3-5-11.3-11.3 C7.6,5.1,12.5,0,18.9,0c6.3,0,11.5,5.1,11.5,11.5C30.4,17.8,25.2,22.8,18.9,22.8z"/>
<path data-typeface="RegulatorNova-Thin" d="M0,55.3l1-0.7c4.4,5.5,10.2,8.8,15.8,8.8c11,0,16.8-6.4,16.8-20V0h1.2v43.4c0,14.5-6.2,21.2-18,21.2 C10.9,64.6,4.6,61,0,55.3z"/>
<path data-typeface="RegulatorNova-Thin" d="M0,1.8C0,0.7,0.8,0,1.8,0s1.8,0.7,1.8,1.8S2.8,3.6,1.8,3.6C0.8,3.6,0,2.9,0,1.8z M1.1,13.9h1.3v64.5H1.1V13.9z"/>
<path data-typeface="Reross-Quadratic" d="M0,52.4V52h11.7v0.6c0,6.5,3.8,10.8,9.8,10.8c5.9,0,9.8-4.3,9.7-10.8V0h11.7v52.4c0,13.8-9,21.4-21.4,21.4 C9,73.8,0,66.2,0,52.4z"/>
<path data-typeface="Reross-Quadratic" d="M0,84.2h1c3,0,5.2-2,5.2-5.2V32.2h11.2V79c0,9.2-6.6,15.6-15.6,15.6H0L0,84.2L0,84.2z M5,6.8C5,3,8.2,0,12,0s6.8,3,6.8,6.8 s-3,7-6.8,7S5,10.6,5,6.8z"/>
<path data-typeface="RetiroStd-Regular24pt" d="M21.2,1.2h-8.5V0h27v1.2h-6.5v50.2c0,12.7-8.2,20.4-17.9,20.4c-4.4,0-9.1-1-13.3-2.8L0,50.1h1.2L11,67.9 c1.1,1.9,2,2.8,4.4,2.8c3.7,0,5.8-2.2,5.8-7.3V1.2z"/>
<path data-typeface="RetiroStd-Regular24pt" d="M16.7,29.5h-5.9v-1H27v54.6c0,9.4-6.4,16-15,16c-3.3,0-8-1.3-10.7-2.5L0,84.7h1.1l8,11.5c1.1,1.6,2,2,3.5,2 c3.3,0,4.1-3,4.1-5.7L16.7,29.5L16.7,29.5z M15.7,6.1c0-3.4,2.8-6.1,6.2-6.1c3.3,0,5.9,2.7,5.9,6.1c0,3.5-2.6,6-5.9,6 C18.5,12.1,15.7,9.6,15.7,6.1z"/>
<path data-typeface="ridiculousobsessionsRegular" d="M25.8,22v60.4c0,0.5,0,4-1.6,7.4c-0.9,2.2-2.4,3.8-4.3,5C16.2,97.3,9.8,97.5,6,95c-5.1-3-6.6-9.5-5.8-12.9 c0.8-3.3,3.2-6,6.6-6c7.6,0.2,8.8,10.7,1.5,12.6c1,1.1,2.4,1.7,4.3,1.7c5.8,0.1,6.6-4.6,6.8-7.9c0-0.1,0-57.3,0-57.3s-1.4,0-3.2,0 c-1.8,0-3.2-1.4-3.2-3.2s1.4-3.2,3.2-3.2h6.4C24.4,18.8,25.8,20.2,25.8,22z M22.6,0C26.1,0,29,2.9,29,6.4c-0.3,8.5-12.5,8.5-12.8,0 C16.2,2.9,19.1,0,22.6,0z"/>
<path data-typeface="ridiculousobsessionsRegular" d="M25.8,22v60.4c0,0.5,0,4-1.6,7.4c-0.9,2.2-2.4,3.8-4.3,5C16.2,97.3,9.8,97.5,6,95c-5.1-3-6.6-9.5-5.8-12.9 c0.8-3.3,3.2-6,6.6-6c7.6,0.2,8.8,10.7,1.5,12.6c1,1.1,2.4,1.7,4.3,1.7c5.8,0.1,6.6-4.6,6.8-7.9c0-0.1,0-57.3,0-57.3s-1.4,0-3.2,0 S13,23.8,13,22s1.4-3.2,3.2-3.2h6.4C24.4,18.8,25.8,20.2,25.8,22z M22.6,0C26.1,0,29,2.9,29,6.4c-0.3,8.5-12.5,8.5-12.8,0 C16.2,2.9,19.1,0,22.6,0z"/>
<path data-typeface="RobotoMono-Light" d="M38.7,0h6v49.5c-0.1,3.2-0.7,6.2-1.8,8.9s-2.6,5.1-4.6,7.1s-4.3,3.6-7,4.8s-5.7,1.8-8.9,1.8s-6.2-0.5-8.8-1.5 s-4.9-2.4-6.9-4.2c-1.9-1.8-3.5-4-4.6-6.6S0.3,54.3,0,51.2h6c0.1,2.3,0.6,4.5,1.4,6.5c0.8,2,1.9,3.7,3.3,5.1 c1.4,1.4,3.1,2.5,5.1,3.2c2,0.8,4.2,1.1,6.6,1.1c2.5,0,4.7-0.5,6.7-1.4s3.7-2.2,5.1-3.8c1.4-1.6,2.5-3.5,3.3-5.6s1.2-4.3,1.2-6.7V0z "/>
<path data-typeface="RobotoMono-Light" d="M5.1,18.9H30v52.8c0,3.3-0.4,6.3-1.3,8.9s-2.2,4.9-3.9,6.7s-3.8,3.2-6.3,4.2S13.2,93,10.1,93c-1.9,0-3.6-0.1-5.1-0.2 c-1.5-0.1-3.2-0.3-5-0.7l0.4-4.8c0.6,0.1,1.3,0.2,2.2,0.3s1.7,0.1,2.6,0.2s1.7,0.1,2.6,0.1c0.8,0,1.5,0,2,0c2,0,3.8-0.3,5.6-0.8 c1.8-0.6,3.3-1.5,4.6-2.8s2.4-3,3.1-5c0.8-2.1,1.2-4.6,1.2-7.6V24.1h-19v-5.2H5.1z M22.2,4.4c0-1.2,0.3-2.2,1-3.1 C23.9,0.4,25,0,26.6,0c1.6,0,2.7,0.4,3.4,1.3c0.7,0.9,1.1,1.9,1.1,3.1c0,1.1-0.4,2.1-1.1,3c-0.7,0.9-1.9,1.3-3.4,1.3 c-1.6,0-2.7-0.4-3.4-1.3C22.6,6.6,22.2,5.6,22.2,4.4z"/>
<path data-typeface="RobotoSlab-Light" d="M50.2,0v4.3l-8,0.6v45.9c0,6.5-1.9,11.6-5.8,15.5c-3.9,3.8-8.8,5.7-15,5.7c-6.7,0-11.9-1.7-15.8-5.2 C1.7,63.3-0.1,58.3,0,51.7l0.1-0.3h5.5c0,5.1,1.4,9,4.1,11.7c2.7,2.7,6.6,4,11.7,4c4.3,0,7.9-1.5,10.7-4.4s4.2-6.9,4.2-11.8V5 l-8-0.6V0.1h13.8h8.1V0z"/>
<path data-typeface="RobotoSlab-Light" d="M20.3,80.5c0,5.4-1.3,9.6-3.9,12.6c-2.6,2.9-6.2,4.4-10.9,4.4c-1,0-1.9-0.1-2.8-0.2c-0.9-0.2-1.8-0.4-2.7-0.7l0.6-4.9 c0.5,0.2,1.2,0.3,2.1,0.5c0.9,0.2,1.7,0.2,2.4,0.2c2.9,0,5.2-1,6.8-3s2.4-5,2.4-8.9V28.3l-8-0.6v-4.3h13.8v57.1H20.3z M20,8h-5.9V0 H20V8z"/>
<path data-typeface="Rockwell" d="M0,88v-9.5c2.5,0.7,5,1,7.3,1c2.9,0,4.9-0.8,5.8-2.4s1.4-4.8,1.4-9.7V8.5H5.8V0h27.6v8.5h-8.7v59.4c0,5.1-0.4,9-1.1,11.6 c-0.8,2.7-2.6,4.9-5.5,6.8c-2.9,1.9-6.4,2.8-10.4,2.8C5,89.2,2.4,88.8,0,88z"/>
<path data-typeface="Rockwell" d="M0,89.2v-8.4c1.6,0.2,3.1,0.3,4.5,0.3c2.4,0,4.3-0.4,5.5-1.1c1.2-0.7,2-1.8,2.4-3.3c0.4-1.4,0.6-5.9,0.6-13.3V29.9H5.6v-8.3 h16.7v40.2c0,8.1-0.3,13.8-0.8,16.9c-0.5,3.2-2.1,5.8-4.6,7.8c-2.6,2-6.4,3.1-11.4,3.1C3.6,89.7,1.8,89.5,0,89.2z M11.8,5.5 c0-1.5,0.6-2.8,1.7-3.9c1.1-1.1,2.4-1.6,4-1.6s2.9,0.5,4,1.6s1.6,2.4,1.6,4s-0.6,2.9-1.7,4c-1.1,1.1-2.4,1.6-4,1.6s-2.9-0.6-4-1.7 S11.8,7,11.8,5.5z"/>
<path data-typeface="RogueSerif-Light" d="M32,6.3v42.1c0,17.2-11.6,17.8-20,17.8L0,64.8V53.1h4.8l1.4,6.3h5.6c7.9,0,8.1-3,8.1-10.6L19.8,6.3L12.7,5V0h26.5v5L32,6.3z "/>
<path data-typeface="RogueSerif-Light" d="M24.8,71.5c0,13.1-4,14.5-12.6,14.6L0,84.9V74.6h3.9l1.3,4.9c8.7-0.2,9.1-2.6,9.1-8V22.6l-6.4-1.2v-5h16.9V71.5z M20,10.2 h-1.1c-4.5,0-5.5-1.3-5.5-2.9V3c0-1.7,1.1-3,5.5-3H20c4.5,0,5.6,1.3,5.6,3v4.3C25.6,9,24.6,10.2,20,10.2z"/>
<path data-typeface="Rooney-Regular" d="M11.4,7L6.3,5.8C5.1,5.5,4.3,5,3.8,4.5C3.4,4,3.2,3.3,3.2,2.4c0-0.7,0.3-1.2,0.8-1.7S5.2,0,6.1,0h19.8c1,0,1.7,0.2,2.2,0.7 s0.7,1,0.7,1.7c0,0.9-0.2,1.5-0.6,2.1c-0.4,0.5-1.2,1-2.5,1.3L20.6,7v52.2c0,2.9-0.1,5.5-0.4,7.6c-0.3,2.1-0.7,4-1.2,5.7 s-1.1,3.1-1.8,4.3s-1.5,2.3-2.4,3.4c-1.7,2.1-3.6,3.6-5.6,4.5s-3.9,1.4-5.5,1.4c-1.3,0-2.2-0.3-2.8-0.8S0,84.1,0,83.2 c0-0.7,0.2-1.2,0.5-1.6c0.3-0.4,0.8-0.8,1.5-1.2c1.3-0.7,2.6-1.6,3.7-2.5c1.1-0.9,2.1-2.1,3-3.5s1.5-3,2-5c0.5-1.9,0.7-4.3,0.7-7.2 L11.4,7L11.4,7z"/>
<path data-typeface="Rooney-Regular" d="M10.4,28.3l-5.3-0.9c-1-0.2-1.7-0.5-2.1-0.9c-0.4-0.4-0.6-1-0.6-1.7C2.4,24,2.6,23.4,3,23c0.4-0.4,1.2-0.8,2.3-1.2 c1.1-0.3,2.5-0.5,4.1-0.7s3-0.3,4.1-0.3c2.3,0,3.8,0.4,4.6,1.3c0.8,0.8,1.3,2.4,1.3,4.5v40.8c0,2.9-0.1,5.5-0.4,7.6 c-0.3,2.2-0.6,4.1-1.1,5.7c-0.5,1.6-1,3-1.7,4.2s-1.4,2.3-2.1,3.3c-1.5,1.8-3.3,3.2-5.3,4.3c-2,1-3.8,1.5-5.6,1.5 c-1.1,0-1.9-0.2-2.4-0.7S0,92.2,0,91.4c0-0.3,0-0.5,0.1-0.7s0.2-0.4,0.3-0.6c0.1-0.2,0.3-0.4,0.6-0.6c0.3-0.2,0.6-0.4,0.9-0.6 c1.3-0.7,2.4-1.5,3.5-2.4s1.9-2,2.6-3.4S9.3,80,9.6,78c0.4-2,0.6-4.5,0.6-7.4V28.3H10.4z M8.5,6.4c0-1.7,0.6-3.2,1.8-4.5 C11.5,0.7,13,0,14.7,0s3.2,0.6,4.4,1.8s1.8,2.6,1.8,4.4c0,1.7-0.6,3.2-1.8,4.5c-1.2,1.2-2.7,1.8-4.4,1.8s-3.2-0.6-4.4-1.8 C9.1,9.5,8.5,8.1,8.5,6.4z"/>
<path data-typeface="SenatorOT-Demi" d="M4.6,80.5H0v-4.7h4.6c2.6,0,4.7-2.2,4.7-4.6V4.7H4.6V0h18.7v4.7h-4.7v61.8C18.6,74.1,12.3,80.5,4.6,80.5z"/>
<path data-typeface="SenatorOT-Demi" d="M2.3,23.3v-4.6h14V77c0,3.7-3.1,7-7,7H0v-4.7h11.7v-4.6L7,70V23.3H2.3z M16.9,5.2c0,3-2.3,5.3-5.2,5.3S6.4,8.2,6.4,5.2 C6.4,2.3,8.8,0,11.7,0S16.9,2.3,16.9,5.2z"/>
<path data-typeface="ServusSlab-Black" d="M36.3,8.8c-1.5,0.8-3.1,1.7-4.8,2.5c-0.3,4.9-0.7,14.2-0.7,31.3v18.6C30.8,84.4,17.5,95,4,95c-2.4-2.2-3.7-4.9-4-8.1 C4.9,83,7.8,73.4,7.8,61.2V42.4c0-18.5-0.5-28.2-0.9-32.9C5,9.2,3,8.8,0.9,8.5c0-3.5,0.5-6.3,1-8.5h5.9c4,0,5.7,0.3,11.5,0.3 S26.8,0,30.8,0h4C35.8,2.9,36.2,5.8,36.3,8.8L36.3,8.8z"/>
<path data-typeface="ServusSlab-Black" d="M28.6,32.4c0,0-1,10.3-1,27.4c0,4.9,0,9.8,0,14.7c0,17.8-11.7,28.4-23.6,28.4c-2.4-2.2-3.7-4.9-4-8.1c0,0,5.6-5.1,5.6-18.3 c0-5.6,0-11.1,0-16.7c0-7.1-0.2-13.1-0.4-17.6c-1.3-1-2.7-1.9-4.1-2.7c0-3.2,0.3-5.1,1.1-8.1c6.6-0.6,13.3-2.7,19.1-5.3 C24.5,27.2,27,29.2,28.6,32.4z M15.5,19.7c-8.8,0-10.3-5.7-10.3-9.1C5.2,2.4,14.1,0,19.5,0c8.1,0,9.6,5.3,9.6,9 C29.1,17.5,21.2,19.7,15.5,19.7L15.5,19.7z"/>
<path data-typeface="SourceCodePro-Bold" d="M21.4,66.4c-3.6,0-7.3-0.8-11.3-2.4C6.2,62.4,2.8,59.6,0,55.6l8.5-9.1c3.8,4.8,7.9,7.2,12.4,7.2c3.3,0,5.9-0.9,7.6-2.6 c1.7-1.7,2.5-4.8,2.5-9.3V12.3H5.5V0h40.2v43c0,4.3-0.8,8.2-2.3,11.7s-4.1,6.4-7.6,8.5C32.2,65.3,27.4,66.4,21.4,66.4z"/>
<path data-typeface="SourceCodePro-Bold" d="M15.3,95.1c-3.1,0-5.9-0.3-8.4-0.9c-2.5-0.6-4.8-1.5-6.9-2.5l4.3-10.5c2,0.9,3.8,1.5,5.5,1.8c1.6,0.4,3.2,0.5,4.6,0.5 c3.5,0,5.9-0.8,7.3-2.5c1.3-1.7,1.9-4.3,1.9-8V37.3H3.7V25.8h34.6v46.6c0,4-0.7,7.7-2,11.2c-1.3,3.4-3.7,6.2-7,8.3 C26,94,21.3,95.1,15.3,95.1z M30.3,18.1c-2.9,0-5.2-0.8-7-2.4c-1.8-1.6-2.8-3.8-2.8-6.5s0.9-5,2.8-6.7c1.8-1.7,4.2-2.5,7-2.5 c2.9,0,5.2,0.8,7,2.5s2.8,3.9,2.8,6.7c0,2.7-0.9,4.8-2.8,6.5C35.5,17.2,33.2,18.1,30.3,18.1z"/>
<path data-typeface="SourceSansPro-Light" d="M0,57.5l3.2-2.1c3.3,5.6,7.2,7.8,12.8,7.8c8.2,0,12-4.8,12-15.6V0h4.3v48c0,10.7-4.4,19.1-16.3,19.1 C8.8,67.1,3.3,63.7,0,57.5z"/>
<path data-typeface="SourceSansPro-Light" d="M0,89.1L1,86c1.2,0.4,3.3,0.9,5,0.9c5.5,0,6.5-4.4,6.5-10.5V19.5h4.1v57.2c0,9.4-3.3,13.8-10.5,13.8 C4.1,90.5,1.5,89.9,0,89.1z M10.8,3.8c0-2.2,1.6-3.8,3.7-3.8s3.7,1.6,3.7,3.8c0,2.4-1.6,4-3.7,4S10.8,6.2,10.8,3.8z"/>
<path data-typeface="Sutro-Bold" d="M58.6,7.9H48.2v40.7c0,12.4-7.2,23.3-26.5,23.3c-14,0-21.7-6.1-21.7-17C0,51.7,0.6,48,1.1,46L12,47.8 c-0.3,1.5-0.6,4.6-0.6,6.7c0,4.4,2.3,9.9,10.8,9.9c7.3,0,12.1-3.6,12.1-13.5v-43H23.9V0h34.7V7.9z"/>
<path data-typeface="Sutro-Bold" d="M34,74c0,11.2-6.5,19.5-19.6,19.5c-8,0-14.4-1.9-14.4-9.7c0-1.7,0.6-4.5,0.9-5.5l9,1.2c0,0.6-0.3,2-0.3,3.3 c0,3.8,2.5,4.1,5.2,4.1c3.5,0,6.2-2.7,6.2-10.9V34.1h-7.9v-6L34,26V74z M26.8,13.8c-4.2,0-6.9-3.1-6.9-6.9c0-3.8,2.8-6.9,6.9-6.9 c4,0,7,3.1,7,6.9S30.8,13.8,26.8,13.8z"/>
<path data-typeface="TarzanaNarOT-Bold" d="M21.4,0v48c0,21.2-6.3,27.3-21.4,27.6V65.1c6,0,9.4-1.4,9.4-15.9V0L21.4,0L21.4,0z"/>
<path data-typeface="TarzanaNarOT-Bold" d="M0,80.2v-9.5c6,0,9.6-1.4,9.6-15.9v-32L21.2,18v34.6C21.2,73.8,15.1,79.9,0,80.2z M21.2,0v11.6H9.6V0H21.2z"/>
<path data-typeface="Tenez-Regular" d="M45,0.6c0,0.6-0.5,0.6-1.8,1.2c-3.6,1.5-4,2.9-4,17.2v22.9c0,16.5-9.1,23.3-21.3,23.3C7.9,65.2,0,59.6,0,49 c0-4.7,2.3-7.4,5.4-7.4c2.3,0,3.9,1.5,3.9,3.7c0,3.2-3.8,3.7-3.8,8.2c0,4.6,4.2,10.2,12.3,10.2c8.4,0,13.3-5.2,13.3-16.3v-27 c0-14.8-0.3-16.7-4.4-18.6c-0.9-0.4-1.5-0.6-1.5-1.2c0-0.4,0.3-0.6,0.7-0.6c1.2,0,5.5,0.7,9.3,0.7c3.7,0,8.2-0.7,9.1-0.7 C44.8,0,45,0.2,45,0.6z"/>
<path data-typeface="Tenez-Regular" d="M8.3,85.2c-4.5,0-8.3-3-8.3-6.3c0-2.3,1.4-3.7,3.3-3.7c2,0,3,1.2,3.7,3.7c0.7,2.6,2,4,4.2,4c2.5,0,4.3-1.7,4.3-5.7 c0-2.5-2.3-5.9-2.3-10.7V37c0-5.7-0.8-7.3-5.3-8.5c-1.3-0.4-1.8-0.5-1.8-1.2c0-0.5,0.3-0.6,1.1-0.7c9.8-0.4,12.1-3,13.2-3 c0.5,0,0.8,0.3,0.8,0.7s-0.3,1.1-0.5,2.6c-0.3,1.8-0.5,4.9-0.5,9.7V69C20.2,80.9,14.7,85.2,8.3,85.2L8.3,85.2z M9.8,5.5 c0-3.3,2.4-5.5,5.6-5.5c3.4,0,5.7,2.2,5.7,5.5c0,3.4-2.3,5.5-5.7,5.5C12.3,11,9.8,8.9,9.8,5.5z"/>
<path data-typeface="Trilby-Medium" d="M0,68.6V48h8.7v12.3c3.4,1.6,7.2,2.2,11.7,2.3c13.1,0,17.7-6.9,17.7-20.8V13.4c0-1.7-0.6-2.3-2.4-2.3h-7.5V0h28.6v11.1h-6.9 c-1.7,0-2.3,0.6-2.3,2.3v28.1c0,20.1-7.6,32.1-27.4,32.1C12.8,73.6,7.1,72.6,0,68.6z"/>
<path data-typeface="Trilby-Medium" d="M0,96.6V85.5c1.7,0.3,3.7,0.6,6,0.6c8.5,0,10.7-4.5,10.7-13.3V38c0-1.7-0.7-2.3-2.4-2.3H9.2V24.8h16.7v48.7 c0,16.3-6.1,23.8-19.9,23.8C4,97.3,2,97.1,0,96.6z M12.8,7.3c0-4,2.2-7.3,7-7.3C24.7,0,27,3.3,27,7.3c0,4.1-2.5,7.3-7.2,7.3 S12.8,11.4,12.8,7.3z"/>
<path data-typeface="TriplexCondSerifOT-Black" d="M0.6,9V0h20.1v9h-4.2v45.8c0,5-2.9,9.7-7.2,11.7L0,60.2c3.3-1.9,4.8-4.2,4.8-7.4V9H0.6z"/>
<path data-typeface="TriplexCondSerifOT-Black" d="M16.5,74.8c0,6.3-3.7,9.7-6.7,11.9L0,80.1c2.2-1.3,5-4.2,5-8.6V27.2H1.3v-9h15.2V74.8z M10.8,0c3.6,0,6.5,2.9,6.5,6.5 S14.4,13,10.8,13s-6.5-2.9-6.5-6.5S7.2,0,10.8,0z"/>
<path data-typeface="Tuna-Regular" d="M42.3,0v5.1c-1.2,0.6-2.4,1-3.6,1.3c-1.2,0.3-2.6,0.6-4,0.8v41.3c0,3.3-0.5,6.4-1.5,9.1c-1,2.8-2.4,5.1-4.2,7.1 s-4,3.5-6.6,4.6s-5.4,1.6-8.5,1.6c-2.8,0-5.4-0.3-7.8-0.9S1.7,68.7,0,67.8c0.2-2.5,0.5-5.2,0.9-7.9c0.4-2.8,0.9-5.4,1.6-7.9L8,51.6 l1.1,10.2c1.3,0.6,2.7,1.1,4.2,1.5s3.1,0.6,4.8,0.6c2.6,0,4.5-0.7,5.6-2.1s1.7-3.7,1.7-6.9V7.2C24,7,22.6,6.7,21.2,6.4 s-2.8-0.8-4-1.2V0.1L42.3,0L42.3,0z"/>
<path data-typeface="Tuna-Regular" d="M6.3,77.6L7.4,86c1.1,0.6,2.2,0.9,3.1,1.1c0.9,0.2,2,0.3,3.1,0.3c2.1,0,3.6-0.7,4.8-2.2c1.1-1.5,1.7-4,1.7-7.6V31.8 c-1.2-0.2-2.4-0.6-3.8-1.1c-1.3-0.5-2.4-1.1-3.1-1.8v-3.3l13.6-3.9H29v51.1c0,3.1-0.4,5.9-1.3,8.4c-0.9,2.5-2.2,4.7-3.9,6.6 c-1.7,1.9-3.7,3.3-6,4.3s-4.9,1.5-7.8,1.5c-1.8,0-3.5-0.2-5.3-0.7s-3.3-1.1-4.7-2c0-2.1,0.2-4.3,0.5-6.6c0.3-2.2,0.7-4.3,1.2-6.1 L6.3,77.6z M30.4,6c0,1.7-0.5,3.1-1.4,4.3S26.5,12,24.3,12s-3.8-0.6-4.7-1.7S18.2,7.8,18.2,6c0-1.7,0.5-3.2,1.4-4.3S22.1,0,24.3,0 s3.8,0.6,4.7,1.7C29.9,2.9,30.4,4.3,30.4,6z"/>
<path data-typeface="TurnipRE-Bold" d="M25,75.4c-6.9,0-12.8-1.5-17.7-4.5S0,64.3,0,60c0-2.9,1-5.3,3.1-7.2c2.1-2,4.6-2.9,7.6-2.9c5.7,0,8.6,3.5,8.6,10.5l-0.2,2.7 l10,1.6c1.4,0,2.4-0.3,3-1s0.9-2.1,0.9-4.3l-0.6-15.2V11.6L22,9.6V0h38.9v9.6l-8.6,2.1v35.7c0,9.1-2.3,16-7,20.8 C40.6,73.1,33.8,75.4,25,75.4z"/>
<path data-typeface="TurnipRE-Bold" d="M17.6,104.8c-5.1,0-9.3-1.2-12.6-3.6c-3.3-2.4-5-5.4-5-9.1c0-2.2,0.9-4,2.8-5.5c1.9-1.4,4.1-2.1,6.7-2.1 c5.2,0,7.8,2.9,7.8,8.8v0.8c1.4,0.7,2.9,1,4.5,1c1.7,0,2.5-1.3,2.5-3.9v-1.4L20.6,72V38.4c-1.7-0.8-5-1.6-9.8-2.3l-0.6-9.8h28.9 v53.3c0,8.3-2,14.6-5.9,18.8C29.5,102.7,24.2,104.8,17.6,104.8z M28.9,20.4c-3.5,0-6.3-0.9-8.3-2.8c-2-1.9-3-4.4-3-7.5 c0-3,1-5.4,3-7.3c2-1.9,4.8-2.8,8.3-2.8c3.4,0,6.2,0.9,8.3,2.8c2.1,1.9,3.2,4.3,3.2,7.3c0,3.1-1.1,5.6-3.2,7.5S32.3,20.4,28.9,20.4z "/>
<path data-typeface="Ultra-Regular" d="M6.6,48.3c0.1,1.3,0.3,2.6,0.7,3.9c0.4,1.3,1.1,2.4,2,3.3c0.9,1,2.1,1.7,3.6,2.3s3.4,0.9,5.6,0.9c2.6,0,4.8-0.3,6.5-1 s3.1-1.6,4.1-2.8s1.7-2.5,2.1-4s0.6-3,0.6-4.6V23c0-1.8-0.6-3-1.7-3.8s-3.4-1.1-6.9-1.1V0h45.4v18.1c-2.9,0-4.9,0.4-6.1,1.1 c-1.2,0.8-1.8,2.2-1.8,4.4v22.5c0,2.8-0.4,5.8-1.3,9.1s-2.5,6.3-4.8,9s-5.5,5-9.6,6.9c-4.1,1.8-9.3,2.8-15.7,2.8 c-6,0-10.9-0.8-14.8-2.5c-3.8-1.7-6.8-3.7-8.9-6.2c-2.1-2.4-3.6-5-4.4-7.7s-1.2-5-1.2-7c0-2.9,0.4-5.4,1.3-7.6 c0.8-2.2,1.9-4.1,3.3-5.5c1.3-1.5,2.9-2.6,4.6-3.3s3.6-1.1,5.5-1.1c2.3,0,4.2,0.3,5.8,1c1.6,0.7,2.9,1.6,4,2.7 c1,1.1,1.8,2.4,2.3,3.8c0.5,1.4,0.7,2.8,0.7,4.3c0,1.6-0.3,3.1-0.8,4.4c-0.5,1.3-1.3,2.5-2.1,3.4c-0.9,1-2,1.7-3.2,2.3 c-1.3,0.6-2.6,0.9-4,0.9c-1.7,0-3.1-0.2-4.3-0.6c-1.2-0.4-2.1-1-2.9-1.7s-1.5-1.5-2-2.4S6.9,49.1,6.6,48.3z"/>
<path data-typeface="Ultra-Regular" d="M21.2,45.9c0-1.9-0.6-3.3-1.8-4.2c-1.2-0.9-2.6-1.3-4.1-1.3h-2.1V22.3h35.1v55.2c0,4.6-0.6,8.5-1.7,11.7s-2.8,5.8-5.1,7.7 c-2.3,2-5,3.4-8.3,4.2c-3.3,0.9-7.2,1.3-11.5,1.3c-4,0-7.4-0.4-10.2-1.2c-2.8-0.8-5-1.8-6.7-3.1s-3-2.8-3.7-4.5 C0.3,91.9,0,90.1,0,88.3c0-2.8,0.9-5.2,2.6-7.2s4.3-3,7.8-3c1.5,0,2.9,0.3,4,0.8c1.2,0.5,2.1,1.2,2.9,2s1.3,1.7,1.7,2.7 c0.4,1,0.6,2,0.6,2.9c0,1.7-0.3,3.1-0.8,4s-1.2,1.8-1.9,2.5l0.7,0.8c1.6-1,2.6-2.3,3.1-3.8s0.7-3.1,0.7-4.8V45.9H21.2z M20.4,10.2 c0-2.8,1.1-5.2,3.2-7.2s5.2-3,9.1-3c4,0,7.1,1,9.3,3c2.2,2,3.2,4.4,3.2,7.2c0,2.9-1.1,5.3-3.2,7.3c-2.2,2-5.2,3-9.3,3 c-3.9,0-7-1-9.1-3C21.4,15.5,20.4,13.1,20.4,10.2z"/>
<path data-typeface="UtopiaStd-BlackHeadline" d="M30.6,50.9c0,10.3-2.9,16.1-8.2,19.4c-5.7,3.5-16,4.5-22,3.7L0,70.9c3.7-0.8,5.4-1.8,6.7-5.1c0.8-2,1.4-5.5,1.4-15.6V8.9 c0-4.9-0.4-5.6-6.5-5.8V0h35.1v3.1c-5.6,0.2-6.1,0.9-6.1,5.8V50.9z"/>
<path data-typeface="UtopiaStd-BlackHeadline" d="M30.5,66.2c0,10.6-3.6,15.9-9,19.3c-6,3.9-17.3,4.2-21,3.9L0,86.3c3.8-1.1,5.9-2,7.3-6.2C8.7,75.8,9,71.8,9,62.6V28.7 c0-2.7-0.6-3.8-2.2-4.1L4,24.1v-3.2l26.4-2.6l0.1,0.2V66.2z M9.8,8.3c0-4.7,3.8-8.3,9.8-8.3c6.1,0,9.9,3.6,9.9,8.3s-3.8,8.3-9.9,8.3 C13.6,16.6,9.8,13,9.8,8.3z"/>
<path data-typeface="Vaccine-Light" d="M0,52.8c0.1-0.8,1.3-1.3,2.5-1.3c1.6,0,3.2,0.7,3.3,1.8L6.5,63c2.7,1.6,5.7,2.4,10.5,2.4c9.9,0,14.4-6.9,14.4-15V5.8 l-8.2-0.6c-0.9-0.1-1.4-1.6-1.4-3c0-1.1,0.3-2.2,1.1-2.2H45c0.8,0,1.1,1.1,1.1,2.2c0,1.4-0.5,2.9-1.4,3L38,5.8v44.6 c0,13.7-10.1,20.5-21.3,20.5c-6.5,0-11.4-1.2-16.7-4.1V52.8z"/>
<path data-typeface="Vaccine-Light" d="M10.7,23.3l-8.1-0.8c-0.9-0.1-1.4-1.5-1.4-2.8c0-1.1,0.4-2,1.1-2h9c4.2,0,5.7,1.2,5.7,5.8v44.4c0,8.5-0.6,18.2-14.9,22.7 C0.7,90.1,0,88.8,0,87.5c0-0.5,0.1-1,0.3-1.5c6.1-1.8,10.4-6.5,10.4-18V23.3z M12.3,0c2.6,0,5.1,1.8,5.1,5.1c0,3-2.3,5.1-5.1,5.1 c-3.1,0-5.1-2.5-5.1-5.1C7.2,2.2,9.4,0,12.3,0z"/>
<path data-typeface="VendettaOT-Medium" d="M23.5,3.5l-3.5,1V49C20,61,9.5,71,0,71v-5.5h6l6-12v-49l-1-1H5V0h21.5v3.5H23.5z"/>
<path data-typeface="VendettaOT-Medium" d="M4,79.2l-3-1.5c4-6.5,5-9.5,5-18.5v-32H0c2.5-5,8.5-8,13-8v39C13,67.2,9,73.2,4,79.2z M8.5,9.4c-2.8,0-4.8-2-4.8-4.7 S5.7,0,8.5,0s4.8,2,4.8,4.7S11.3,9.4,8.5,9.4z"/>
<path data-typeface="VistaSlabOTCE-Bold" d="M25.6,12.3v46.3c0,12.6-5.3,23.1-22.1,24.7c-1.3-3.7-2.1-9-2.3-13.3c7-0.8,9.6-2.9,9.6-9.8V12.8H0.9C0.3,9,0,4.1,0,0h26.2 L25.6,12.3z"/>
<path data-typeface="VistaSlabOTCE-Bold" d="M21.9,33.3v40.8c0,13.2-7,20.1-19.2,21.2c-1.2-3.1-2.3-7.9-2.7-12c6.7-0.9,8.3-2.9,8.3-8.7V33.2l-6.4-0.6 c-0.1-1.5-0.2-3.5-0.2-5.1c0-1.7,0.1-3.6,0.2-5.1c5.8-1,14-1.4,20.4-1.4L21.9,33.3z M14.8,15.2c-5.1,0-7.7-3.5-7.7-7.5 C7.1,3.8,9.6,0,14.9,0c5.1,0,7.6,3.8,7.6,7.7C22.5,11.8,20,15.2,14.8,15.2z"/>
<path data-typeface="Wigwag-Bold" d="M49.7,68.9c-5.3,4.6-18.2,8.6-25.7,8.6c-9.3,0-17-1.2-23.3-3L0,58.9c4.8,1.3,12.5,2.4,17.2,2.4c1.8,0,3.6,0,5.1-0.4 L21.2,2.1C25.6,2.1,50.7,0,50.7,0L49.7,68.9z"/>
<path data-typeface="Wigwag-Bold" d="M31.5,95.1c-2.7,2.4-10.9,6.7-19.3,6.7c-4,0-7.9-0.2-10.6-0.6L0,87.7c0.9,0.1,1.8,0.2,2.7,0.2c2.3,0,4.7-0.4,6.7-1.1 c-0.5-21-0.9-36.7-1.5-56.5c5.8-0.5,19.8-1.9,24.9-2.7C32,52.5,31.6,72.7,31.5,95.1z M20.1,20.8c-7.2,0-12.9-4.6-12.9-10.3 S12.9,0,20.1,0c7.2,0,13.1,4.3,13.1,10.5C33.2,16.2,27.3,20.8,20.1,20.8z"/>
<path data-typeface="Zenon-Black" d="M44.1,0l-0.4,5.9l-3.9,1.2c-3,0.9-3.6,2.8-3.7,6l-0.5,30.2C35.3,61.2,24.5,69.3,4.2,75L0,67.7C8.7,61.8,11.1,57,11.2,46.3 l0.3-33.2c0-3.3-0.9-5-4-6L3.7,5.9L3.4,0H44.1z"/>
<path data-typeface="Zenon-Black" d="M15.1,96.8C7.1,96.8,0,93.1,0,87c0-4.3,3.5-8.6,12.8-9c2.6,9.5,3.6,11.5,5.4,11.5c2.1,0,2.6-3.6,2.8-13.3L21.3,60l0.3-17.2 c0-2.4-0.4-5.8-1-6.1l-4.9-2.5l-0.1-5c5-2,22.7-6.2,28.8-6.2l-1,15.8l-0.6,29.8C42.5,84,29.4,96.8,15.1,96.8z M32.4,18.5 c-6.7,0-11-3.4-11-9.1c0-6,5-9.4,12.6-9.4c6.8,0,10.9,3.1,10.9,8.7C44.9,14.8,39.9,18.5,32.4,18.5z"/>
</svg>
